<svg width="137" height="36" viewBox="0 0 137 36" fill="none" xmlns="http://www.w3.org/2000/svg">
<path d="M11.2919 10.8528C12.2839 11.0851 13.0763 11.3075 13.6672 11.5192C14.533 11.8308 15.2609 12.212 15.8527 12.656C17.3515 13.8613 18.1009 15.442 18.1009 17.4089C18.1009 18.4662 17.8739 19.4443 17.42 20.3537C16.966 21.2631 16.3164 22.0618 15.4722 22.7487C14.6279 23.4308 13.6672 23.9326 12.5901 24.2501C11.513 24.5676 10.3733 24.7263 9.16996 24.7263C8.03023 24.7263 6.96877 24.5989 5.98754 24.3461C5.00532 24.0972 4.1405 23.7013 3.39112 23.1613C2.64175 22.6272 2.02444 22.0294 1.53822 21.3797C0.905259 20.5389 0.588287 19.7775 0.588287 19.1062C0.588287 18.8102 0.66264 18.5721 0.810364 18.382C0.958087 18.1919 1.1694 18.0968 1.44333 18.0968C1.67519 18.0968 1.87573 18.1713 2.04498 18.3193C2.21423 18.4672 2.37173 18.674 2.52043 18.9484C3.02719 19.8314 3.44884 20.4556 3.78734 20.8251C4.12485 21.1896 4.51617 21.5228 4.95934 21.8139C5.5923 22.2372 6.31625 22.5537 7.12824 22.7605C7.94121 22.9722 8.74831 23.078 9.55052 23.078C11.1765 23.078 12.5588 22.6762 13.6995 21.8726C15.0085 20.9475 15.6629 19.7 15.6629 18.135C15.6629 16.3211 14.4381 15.0206 11.9894 14.2386C9.709 13.631 7.42955 13.0068 5.14913 12.3718C2.70044 11.3565 1.47561 9.65919 1.47561 7.27001C1.47561 6.31845 1.68105 5.43549 2.09292 4.61035C2.50478 3.78521 3.09079 3.05023 3.85093 2.41128C4.61107 1.76646 5.4661 1.30097 6.41603 1.01579C7.36596 0.73062 8.40101 0.587543 9.51921 0.587543C10.5112 0.587543 11.5306 0.71984 12.5754 0.984434C13.6202 1.24903 14.5438 1.63514 15.346 2.14277C15.705 2.37502 15.9369 2.63962 16.0425 2.93557C16.064 3.04141 16.0797 3.29522 16.0905 3.69701C16.1012 4.0988 16.1169 4.45845 16.1384 4.77597C16.1384 5.13562 16.1169 5.41001 16.0748 5.60111C16.0327 5.79122 15.885 5.88628 15.6316 5.88628C14.8079 4.93472 13.8687 4.10958 12.8132 3.41184C11.6098 2.60826 10.248 2.20647 8.72776 2.20647C7.54499 2.20647 6.49528 2.56612 5.57665 3.28542C4.65803 4.00472 4.1992 4.9406 4.1992 6.10384C4.1992 7.28765 4.62183 8.21373 5.46611 8.88991C6.14211 9.43968 7.12335 9.87381 8.41079 10.1903L11.2929 10.8567L11.2919 10.8528ZM35.6448 16.7797C35.6448 19.0376 34.8739 20.925 33.333 22.4479C31.7922 23.9649 29.8914 24.7263 27.6325 24.7263C25.4792 24.7263 23.6478 23.96 22.1383 22.4322C20.6288 20.8986 19.8736 19.0591 19.8736 16.9071C19.8736 14.7551 20.6552 12.9098 22.2166 11.3663C23.7789 9.82775 25.6367 9.05553 27.79 9.05553C29.9432 9.05553 31.7912 9.80619 33.3321 11.3026C34.8729 12.8039 35.6448 14.6287 35.6448 16.7797ZM31.7814 21.1151C32.2246 20.5438 32.5572 19.8833 32.7793 19.1219C33.0014 18.3604 33.1119 17.5725 33.1119 16.7484C33.1119 15.0197 32.658 13.5869 31.7501 12.4443C30.7581 11.2232 29.4169 10.6098 27.7283 10.6098C26.0183 10.6098 24.678 11.2762 23.7065 12.603C22.8407 13.782 22.4083 15.2627 22.4083 17.0335C22.4083 18.7622 22.8407 20.1842 23.7065 21.3052C24.6565 22.5479 25.9762 23.1711 27.6648 23.1711C29.3748 23.1711 30.7474 22.4851 31.7814 21.1151ZM38.97 3.66271C38.97 3.30306 38.88 3.03357 38.701 2.85423C38.5219 2.6749 38.2519 2.52594 37.8939 2.4103C37.5348 2.29368 37.3558 2.13003 37.3558 1.91835C37.3558 1.77038 37.4399 1.63318 37.6092 1.50578C37.7784 1.37937 37.9046 1.29411 37.9888 1.25197C38.4535 1.01971 38.8966 0.818818 39.3193 0.649282C39.9522 0.395468 40.4062 0.269051 40.6811 0.269051C40.998 0.269051 41.1878 0.374889 41.2514 0.586564C41.315 0.798239 41.3463 1.11575 41.3463 1.53812V20.3811C41.3463 20.6771 41.3512 20.9789 41.3619 21.2856C41.3727 21.5924 41.4148 21.8834 41.4891 22.1578C41.5625 22.4332 41.7161 22.6233 41.948 22.7292L42.2962 22.9193C42.5496 23.0457 42.6866 23.1202 42.7081 23.1417C42.8138 23.2476 42.8666 23.3955 42.8666 23.5856C42.8666 23.8816 42.8138 24.0717 42.7081 24.157C42.6024 24.2413 42.3706 24.2834 42.0115 24.2834H38.338C38.0211 24.2834 37.8 24.2413 37.6728 24.157C37.5466 24.0727 37.483 23.8816 37.483 23.5856C37.483 23.3318 37.6571 23.1094 38.0113 22.9193L38.5709 22.6341C38.7137 22.5283 38.8193 22.3381 38.8771 22.0628C38.9407 21.7874 38.972 21.513 38.972 21.2376C38.972 20.7937 38.972 20.5075 38.972 20.3811V3.66369L38.97 3.66271ZM60.3459 16.7797C60.3459 19.0376 59.575 20.925 58.0342 22.4479C56.4934 23.9649 54.5925 24.7263 52.3336 24.7263C50.1804 24.7263 48.349 23.96 46.8395 22.4322C45.33 20.8986 44.5747 19.0591 44.5747 16.9071C44.5747 14.7551 45.3564 12.9098 46.9177 11.3663C48.4801 9.82775 50.3379 9.05553 52.4911 9.05553C54.6444 9.05553 56.4924 9.80619 58.0332 11.3026C59.574 12.8039 60.3459 14.6287 60.3459 16.7797ZM56.4826 21.1151C56.9258 20.5438 57.2584 19.8833 57.4805 19.1219C57.7025 18.3604 57.8131 17.5725 57.8131 16.7484C57.8131 15.0197 57.3592 13.5869 56.4513 12.4443C55.4593 11.2232 54.118 10.6098 52.4295 10.6098C50.7194 10.6098 49.3791 11.2762 48.4077 12.603C47.5419 13.782 47.1095 15.2627 47.1095 17.0335C47.1095 18.7622 47.5419 20.1842 48.4077 21.3052C49.3576 22.5479 50.6774 23.1711 52.3659 23.1711C54.076 23.1711 55.4485 22.4851 56.4826 21.1151ZM79.4101 1.06087C82.1121 1.06087 84.0971 1.25099 85.364 1.6322C86.6309 2.01243 87.7922 2.59454 88.8477 3.37656C90.3465 4.49765 91.4549 5.851 92.173 7.43661C92.8911 9.02319 93.2501 10.7891 93.2501 12.7344C93.2501 14.32 92.9703 15.833 92.4107 17.2707C91.8511 18.7093 91.002 19.9989 89.8613 21.1406C88.7215 22.2823 87.3911 23.1074 85.8708 23.615C84.5197 24.059 82.9261 24.2814 81.0888 24.2814H72.8868C72.5277 24.2814 72.2479 24.2393 72.0474 24.155C71.8468 24.0707 71.747 23.8698 71.747 23.5523C71.747 23.3201 71.8155 23.1554 71.9525 23.0604C72.0894 22.9653 72.2851 22.8752 72.5385 22.7909C73.1088 22.6008 73.4356 22.4205 73.5197 22.2519C73.6039 22.0824 73.6469 21.6384 73.6469 20.9191V3.2815C73.6469 3.09139 73.5305 2.93263 73.2986 2.80523C73.235 2.78367 73.0296 2.71017 72.6813 2.58278C72.333 2.45636 72.1168 2.3711 72.0317 2.32896C71.8625 2.20157 71.7783 2.02223 71.7783 1.78998C71.7783 1.49402 71.8791 1.29803 72.0797 1.20297C72.2802 1.10791 72.5492 1.05989 72.8868 1.05989L79.4101 1.06087ZM76.4967 18.6985C76.4967 20.4752 76.6229 21.5434 76.8763 21.9021C77.2353 22.4097 78.2694 22.6635 79.9795 22.6635C83.0826 22.6635 85.5323 21.7962 87.3265 20.0626C89.1207 18.3281 90.0188 15.8967 90.0188 12.7667C90.0188 11.2654 89.8075 9.89047 89.3858 8.64296C88.9006 7.24747 88.1933 6.08914 87.2639 5.16894C86.3345 4.24874 85.2006 3.60391 83.8594 3.23348C82.5191 2.86305 81.0986 2.67783 79.5999 2.67783C78.2068 2.67783 77.341 2.87873 77.0035 3.28052C76.6659 3.68231 76.4967 4.57017 76.4967 5.94508V18.6985ZM97.8413 18.7406C98.0731 20.0254 98.6748 21.0455 99.6462 21.7913C100.618 22.542 101.768 22.9173 103.098 22.9173C104.237 22.9173 105.251 22.6478 106.138 22.1029C106.94 21.4954 107.743 20.8927 108.545 20.2841C108.693 20.2841 108.83 20.337 108.957 20.4429C109.083 20.5487 109.147 20.681 109.147 20.8496C109.147 21.2513 108.904 21.7012 108.418 22.2029C108.038 22.6263 107.615 22.98 107.151 23.276C106.454 23.7571 105.731 24.1217 104.982 24.3598C104.233 24.6029 103.435 24.7244 102.591 24.7244C100.48 24.7244 98.7061 24.0472 97.2709 22.6998C95.8358 21.3464 95.1177 19.6177 95.1177 17.5078C95.1177 15.1657 95.9307 13.1675 97.5566 11.5231C99.1825 9.87871 101.167 9.05357 103.511 9.05357C104.798 9.05357 105.875 9.32894 106.741 9.87871C107.311 10.2325 107.781 10.698 108.151 11.2693C108.52 11.8406 108.704 12.4433 108.704 13.0725C108.704 14.1298 108.314 15.0442 107.532 15.8272C106.899 16.4612 106.023 16.9904 104.904 17.4079C104.038 17.746 102.982 18.0213 101.737 18.233C100.998 18.3594 99.9104 18.5074 98.4752 18.6769L97.8413 18.7406ZM106.17 13.0195C106.17 12.216 105.905 11.6133 105.378 11.2115C104.85 10.8097 104.175 10.6088 103.351 10.6088C101.514 10.6088 100.079 11.2958 99.0446 12.6707C98.1162 13.9182 97.6515 15.494 97.6515 17.3971C99.9525 17.1854 101.705 16.8679 102.909 16.4455C105.084 15.7057 106.17 14.563 106.17 13.0195ZM125.519 21.9971C125.519 22.2294 125.594 22.4097 125.741 22.5361C126.143 22.7262 126.396 22.8428 126.502 22.885C126.755 23.0124 126.892 23.0859 126.913 23.1074C127.019 23.2133 127.072 23.3612 127.072 23.5513C127.072 23.7209 127.03 23.8581 126.946 23.9639C126.798 24.1756 126.576 24.2814 126.281 24.2814H122.797C122.565 24.2814 122.385 24.2814 122.259 24.2814C122.047 24.2814 121.884 24.2334 121.768 24.1384C121.651 24.0433 121.593 23.8365 121.593 23.52C121.593 23.2446 121.773 23.0388 122.132 22.8908C122.321 22.8271 122.538 22.738 122.781 22.6214C123.024 22.5047 123.145 22.2882 123.145 21.9706V13.7761C123.145 12.8882 122.902 12.2003 122.417 11.7191C121.805 11.1056 120.824 10.7989 119.473 10.7989C118.797 10.7989 118.168 10.9155 117.588 11.1478C117.008 11.38 116.491 11.7024 116.037 12.115C115.583 12.5276 115.292 12.9558 115.166 13.3998C115.04 13.8437 114.976 14.4258 114.976 15.1441V21.9961C114.976 22.2921 115.103 22.5145 115.356 22.6625C115.419 22.6841 115.588 22.7468 115.863 22.8526C116.137 22.9585 116.327 23.0535 116.433 23.1378C116.539 23.2221 116.591 23.3603 116.591 23.5504C116.591 23.7826 116.517 23.9629 116.369 24.0894C116.222 24.2158 116.021 24.2795 115.768 24.2795H112.253C112.021 24.2795 111.841 24.2795 111.715 24.2795C111.483 24.2795 111.303 24.2315 111.177 24.1364C111.05 24.0413 110.987 23.8346 110.987 23.518C110.987 23.2427 111.177 23.032 111.557 22.8889C111.747 22.8252 111.947 22.7517 112.159 22.6664C112.454 22.4969 112.602 22.2646 112.602 21.9687V13.8006V13.4517C112.602 12.9235 112.56 12.558 112.476 12.3463C112.328 12.0082 112.059 11.775 111.669 11.6485C111.278 11.5221 111.045 11.4261 110.972 11.3634C110.898 11.2997 110.861 11.1938 110.861 11.0459C110.861 10.8342 110.946 10.6333 111.115 10.4432C111.157 10.401 111.32 10.2687 111.606 10.0522C111.891 9.82971 112.161 9.62391 112.413 9.4338C112.772 9.17998 113.057 9.05357 113.268 9.05357C113.711 9.05357 114.05 9.41322 114.282 10.1325C114.345 10.3021 114.451 10.8626 114.599 11.8142C115.359 10.8626 116.182 10.1649 117.069 9.72093C117.955 9.277 119.011 9.05455 120.236 9.05455C121.059 9.05455 121.829 9.18097 122.547 9.43478C123.265 9.68859 123.867 10.0855 124.352 10.6245C124.838 11.1635 125.155 11.8249 125.302 12.607C125.45 13.39 125.524 14.267 125.524 15.2402V21.9971H125.519ZM132.961 20.2841C132.961 21.1935 133.056 21.7962 133.241 22.0922C133.51 22.5155 134.065 22.7262 134.893 22.7262C135.247 22.7262 135.526 22.7262 135.738 22.7262C136.086 22.7262 136.371 22.7791 136.577 22.8791C136.783 22.9849 136.888 23.1907 136.888 23.5033C136.888 23.7522 136.793 23.9424 136.608 24.0796C136.419 24.2119 136.186 24.2805 135.917 24.2805H131.684C131.203 24.2805 130.897 24.1638 130.776 23.9316C130.65 23.6993 130.586 23.3073 130.586 22.7576V10.7979H129.509C128.96 10.7979 128.58 10.745 128.369 10.6392C128.158 10.5333 128.052 10.2795 128.052 9.87773C128.052 9.66605 128.158 9.51318 128.369 9.41812C128.58 9.32306 128.823 9.27504 129.097 9.27504C129.52 9.27504 129.852 9.2329 130.095 9.14863C130.338 9.06435 130.527 8.85757 130.665 8.53026C130.802 8.20295 130.956 7.66298 131.124 6.91232C131.293 6.16165 131.377 5.60601 131.377 5.24733C131.441 4.63387 131.494 4.26442 131.536 4.13702C131.684 3.65095 131.937 3.40694 132.296 3.40694C132.571 3.40694 132.75 3.52356 132.834 3.75581C132.918 3.98806 132.96 4.27422 132.96 4.61231V9.27504H135.399H135.937C136.254 9.27504 136.492 9.31718 136.65 9.40244C136.808 9.48672 136.887 9.68761 136.887 10.0051C136.887 10.3648 136.771 10.5863 136.539 10.6715C136.307 10.7558 135.969 10.7979 135.525 10.7979H132.96V20.2831L132.961 20.2841Z" fill="black"/>
<path d="M3.40386 33.0601C3.43712 33.0914 3.46158 33.1277 3.47723 33.1688C3.49289 33.21 3.50071 33.2521 3.50071 33.2953C3.50071 33.3384 3.49289 33.3805 3.47723 33.4227C3.46158 33.4638 3.43712 33.502 3.40386 33.5354C3.3706 33.5687 3.33244 33.5932 3.29038 33.6098C3.24831 33.6265 3.20527 33.6353 3.16124 33.6363C3.11722 33.6373 3.07418 33.6304 3.03211 33.6147C2.99004 33.5991 2.95287 33.5755 2.92156 33.5432C2.81786 33.4393 2.7034 33.3629 2.5772 33.3129C2.45099 33.2639 2.3199 33.2394 2.1849 33.2394C2.04793 33.2394 1.91782 33.2659 1.79357 33.3188C1.66933 33.3717 1.56074 33.4452 1.46683 33.5373C1.37291 33.6304 1.29758 33.7402 1.24377 33.8656C1.18898 33.992 1.1616 34.1282 1.1616 34.2723C1.1616 34.4095 1.18703 34.5418 1.2379 34.6672C1.28877 34.7927 1.36019 34.9024 1.45117 34.9975C1.54215 35.0916 1.64879 35.168 1.77303 35.2239C1.89728 35.2807 2.0313 35.3091 2.17511 35.3111C2.31208 35.313 2.44219 35.2895 2.56448 35.2405C2.68676 35.1925 2.80318 35.1141 2.91373 35.0073C2.94504 34.9759 2.98221 34.9514 3.02428 34.9367C3.06635 34.922 3.10939 34.9152 3.15342 34.9152C3.19744 34.9152 3.24049 34.922 3.28255 34.9367C3.32462 34.9514 3.3618 34.9749 3.3931 35.0043C3.42636 35.0377 3.4518 35.0759 3.46843 35.118C3.48506 35.1602 3.49288 35.2033 3.49288 35.2474C3.49288 35.2915 3.48506 35.3346 3.46941 35.3767C3.45375 35.4189 3.4293 35.4561 3.39799 35.4875C3.22581 35.658 3.03504 35.7864 2.82471 35.8706C2.61437 35.9549 2.39621 35.9971 2.1712 35.9971C1.93934 35.9971 1.7202 35.952 1.51378 35.8618C1.30834 35.7717 1.12833 35.6482 0.974737 35.4924C0.821143 35.3356 0.698856 35.1533 0.608853 34.9446C0.518849 34.7349 0.473846 34.5114 0.473846 34.2762C0.473846 34.1263 0.493415 33.9783 0.531569 33.8343C0.570701 33.6892 0.625486 33.554 0.696902 33.4276C0.768318 33.3002 0.854405 33.1826 0.956149 33.0748C1.05789 32.967 1.17235 32.8749 1.29953 32.7965C1.42573 32.719 1.56465 32.6593 1.71433 32.6161C1.86401 32.573 2.02152 32.5505 2.18685 32.5505C2.40893 32.5505 2.62415 32.5916 2.83351 32.6759C3.04287 32.7592 3.23266 32.8876 3.40386 33.0581V33.0601ZM7.66828 33.2659V35.6237C7.66828 35.6717 7.65947 35.7158 7.64089 35.757C7.6223 35.7981 7.59784 35.8344 7.56751 35.8648C7.53621 35.8951 7.50001 35.9187 7.45794 35.9363C7.41588 35.9539 7.37088 35.9628 7.32294 35.9628C7.275 35.9628 7.23196 35.9539 7.18989 35.9363C7.1488 35.9187 7.1126 35.8951 7.0813 35.8648C7.05097 35.8344 7.02553 35.7991 7.00792 35.757C6.99031 35.7158 6.98151 35.6717 6.98151 35.6237V33.2659H6.28789C6.23996 33.2659 6.19593 33.2561 6.15485 33.2374C6.11376 33.2188 6.07756 33.1943 6.04626 33.163C6.01593 33.1326 5.99049 33.0963 5.97288 33.0542C5.95527 33.0121 5.94647 32.967 5.94647 32.919C5.94647 32.8709 5.95527 32.8268 5.97288 32.7847C5.99049 32.7435 6.01495 32.7073 6.04626 32.6759C6.07756 32.6455 6.11278 32.621 6.15485 32.6034C6.19593 32.5858 6.23996 32.5769 6.28789 32.5769H8.36189C8.40983 32.5769 8.45385 32.5858 8.49592 32.6044C8.53701 32.623 8.57321 32.6475 8.60549 32.6779C8.6368 32.7092 8.66223 32.7455 8.67886 32.7876C8.69647 32.8298 8.70528 32.8749 8.70528 32.9229C8.70528 32.9709 8.69647 33.015 8.67886 33.0562C8.66125 33.0973 8.6368 33.1336 8.60549 33.1649C8.57419 33.1953 8.53799 33.2208 8.49592 33.2384C8.45483 33.2561 8.40983 33.2649 8.36189 33.2649H7.66828V33.2659ZM12.6009 32.5524C12.7594 32.5524 12.911 32.574 13.0577 32.6152C13.2035 32.6563 13.3415 32.7141 13.4686 32.7876C13.5958 32.8621 13.7122 32.9513 13.8169 33.0562C13.9216 33.161 14.0116 33.2776 14.0859 33.405C14.1603 33.5324 14.219 33.6706 14.2601 33.8166C14.3012 33.9626 14.3217 34.1155 14.3217 34.2743C14.3217 34.5134 14.2767 34.7358 14.1867 34.9436C14.0957 35.1513 13.9734 35.3336 13.8169 35.4904C13.6614 35.6462 13.4794 35.7697 13.271 35.8599C13.0626 35.95 12.8386 35.9951 12.6019 35.9951C12.3641 35.9951 12.1421 35.95 11.9337 35.8599C11.7253 35.7697 11.5443 35.6462 11.3897 35.4904C11.2361 35.3346 11.1148 35.1523 11.0258 34.9436C10.9368 34.7358 10.8918 34.5124 10.8918 34.2743C10.8918 34.1155 10.9123 33.9636 10.9524 33.8166C10.9925 33.6706 11.0503 33.5324 11.1236 33.405C11.198 33.2776 11.286 33.161 11.3897 33.0562C11.4934 32.9513 11.6089 32.8611 11.7351 32.7876C11.8613 32.7132 11.9982 32.6563 12.144 32.6152C12.2898 32.574 12.4424 32.5524 12.6009 32.5524ZM12.6038 33.2394C12.461 33.2394 12.3279 33.2668 12.2027 33.3217C12.0775 33.3766 11.9699 33.4501 11.8769 33.5442C11.785 33.6383 11.7116 33.748 11.6578 33.8725C11.604 33.9979 11.5766 34.1312 11.5766 34.2743C11.5766 34.4193 11.604 34.5545 11.6578 34.681C11.7116 34.8074 11.784 34.9161 11.8769 35.0083C11.9689 35.1004 12.0775 35.1739 12.2027 35.2268C12.3279 35.2797 12.461 35.3062 12.6038 35.3062C12.7466 35.3062 12.8807 35.2797 13.0069 35.2268C13.1331 35.1739 13.2417 35.1004 13.3346 35.0083C13.4275 34.9161 13.5019 34.8064 13.5557 34.681C13.6095 34.5545 13.6359 34.4193 13.6359 34.2743C13.6359 34.1312 13.6095 33.9979 13.5557 33.8725C13.5019 33.747 13.4285 33.6383 13.3346 33.5442C13.2417 33.4511 13.1321 33.3766 13.0069 33.3217C12.8807 33.2668 12.7466 33.2394 12.6038 33.2394ZM20.4517 35.6237C20.4517 35.6717 20.4429 35.7158 20.4253 35.757C20.4077 35.7981 20.3833 35.8344 20.351 35.8648C20.3197 35.8951 20.2835 35.9187 20.2424 35.9363C20.2013 35.9539 20.1563 35.9628 20.1084 35.9628C20.0604 35.9628 20.0164 35.9539 19.9753 35.9363C19.9342 35.9187 19.898 35.8951 19.8667 35.8648C19.8354 35.8344 19.811 35.7991 19.7924 35.757C19.7738 35.7158 19.764 35.6717 19.764 35.6237V33.8186L19.0528 34.6457C19.0391 34.6653 19.0254 34.681 19.0136 34.6937C19.0068 34.7006 18.9999 34.7064 18.9951 34.7123C18.9902 34.7172 18.9833 34.7221 18.9765 34.7251L18.9608 34.7378L18.9236 34.7613C18.862 34.7946 18.8004 34.8054 18.7378 34.7937C18.6761 34.7819 18.6194 34.7496 18.5685 34.6947C18.5597 34.6878 18.5529 34.68 18.547 34.6721C18.5411 34.6643 18.5343 34.6565 18.5265 34.6476L17.8103 33.8147V35.6227C17.8103 35.6707 17.8015 35.7148 17.7839 35.756C17.7663 35.7971 17.7419 35.8334 17.7096 35.8638C17.6783 35.8942 17.6421 35.9177 17.601 35.9353C17.5599 35.953 17.5149 35.9618 17.467 35.9618C17.419 35.9618 17.375 35.953 17.3339 35.9353C17.2928 35.9177 17.2556 35.8942 17.2243 35.8638C17.193 35.8334 17.1676 35.7981 17.15 35.756C17.1324 35.7148 17.1236 35.6707 17.1236 35.6227V32.916C17.1236 32.8739 17.1314 32.8327 17.1461 32.7955C17.1607 32.7573 17.1813 32.7239 17.2077 32.6945C17.2341 32.6642 17.2644 32.6397 17.2997 32.621C17.3349 32.6014 17.374 32.5897 17.4161 32.5838C17.4669 32.575 17.5188 32.5789 17.5707 32.5946C17.6225 32.6103 17.6704 32.6377 17.7125 32.6769L18.7877 33.9323L19.8589 32.6769C19.8912 32.6465 19.9254 32.624 19.9636 32.6093C20.0017 32.5946 20.0409 32.5858 20.0819 32.5818C20.0839 32.5818 20.0849 32.5809 20.0859 32.5799C20.0868 32.5789 20.0898 32.5789 20.0927 32.5789H20.1064C20.1543 32.5789 20.1984 32.5877 20.2395 32.6054C20.2805 32.623 20.3177 32.6465 20.349 32.6769C20.3803 32.7073 20.4058 32.7426 20.4234 32.7837C20.441 32.8249 20.4498 32.87 20.4498 32.918V35.6247L20.4517 35.6237ZM25.3129 35.3807H23.914L23.7613 35.756C23.7418 35.802 23.7154 35.8393 23.6821 35.8706C23.6488 35.902 23.6117 35.9245 23.5706 35.9392C23.5295 35.9539 23.4845 35.9608 23.4366 35.9608C23.3886 35.9598 23.3436 35.95 23.2996 35.9304C23.2536 35.9108 23.2164 35.8844 23.1861 35.852C23.1558 35.8197 23.1352 35.7834 23.1215 35.7432C23.1078 35.7031 23.1029 35.66 23.1059 35.6149C23.1088 35.5698 23.1186 35.5247 23.1382 35.4796L24.2965 32.7886C24.3268 32.722 24.3689 32.67 24.4227 32.6338C24.4765 32.5975 24.5391 32.5799 24.6105 32.5799C24.677 32.5799 24.7387 32.5975 24.7944 32.6338C24.8502 32.67 24.8913 32.721 24.9197 32.7867L26.0858 35.4806C26.1054 35.5247 26.1161 35.5688 26.1191 35.6139C26.122 35.659 26.1161 35.7021 26.1044 35.7423C26.0917 35.7824 26.0721 35.8197 26.0427 35.853C26.0134 35.8863 25.9772 35.9128 25.9332 35.9324C25.8891 35.952 25.8441 35.9618 25.7982 35.9628C25.7522 35.9637 25.7082 35.9569 25.6661 35.9412C25.624 35.9255 25.5859 35.902 25.5526 35.8706C25.5194 35.8393 25.492 35.803 25.4704 35.7589L25.312 35.3836L25.3129 35.3807ZM24.1918 34.6937H25.0312L24.6144 33.6784L24.1918 34.6937ZM29.7789 33.2659V35.6237C29.7789 35.6717 29.7701 35.7158 29.7515 35.757C29.7329 35.7981 29.7084 35.8344 29.6781 35.8648C29.6468 35.8951 29.6106 35.9187 29.5685 35.9363C29.5265 35.9539 29.4815 35.9628 29.4335 35.9628C29.3856 35.9628 29.3426 35.9539 29.3005 35.9363C29.2594 35.9187 29.2232 35.8951 29.1919 35.8648C29.1616 35.8344 29.1361 35.7991 29.1185 35.757C29.1009 35.7158 29.0921 35.6717 29.0921 35.6237V33.2659H28.3985C28.3506 33.2659 28.3065 33.2561 28.2654 33.2374C28.2244 33.2188 28.1882 33.1943 28.1569 33.163C28.1265 33.1326 28.1011 33.0963 28.0835 33.0542C28.0659 33.0121 28.0571 32.967 28.0571 32.919C28.0571 32.8709 28.0659 32.8268 28.0835 32.7847C28.1011 32.7435 28.1256 32.7073 28.1569 32.6759C28.1882 32.6455 28.2234 32.621 28.2654 32.6034C28.3065 32.5858 28.3506 32.5769 28.3985 32.5769H30.4725C30.5204 32.5769 30.5645 32.5858 30.6065 32.6044C30.6476 32.623 30.6838 32.6475 30.7161 32.6779C30.7474 32.7092 30.7728 32.7455 30.7895 32.7876C30.8071 32.8298 30.8159 32.8749 30.8159 32.9229C30.8159 32.9709 30.8071 33.015 30.7895 33.0562C30.7719 33.0973 30.7474 33.1336 30.7161 33.1649C30.6848 33.1953 30.6486 33.2208 30.6065 33.2384C30.5654 33.2561 30.5204 33.2649 30.4725 33.2649H29.7789V33.2659ZM34.7115 32.5524C34.87 32.5524 35.0216 32.574 35.1683 32.6152C35.3141 32.6563 35.4521 32.7141 35.5792 32.7876C35.7064 32.8621 35.8228 32.9513 35.9275 33.0562C36.0322 33.161 36.1222 33.2776 36.1965 33.405C36.2709 33.5324 36.3296 33.6706 36.3707 33.8166C36.4118 33.9626 36.4323 34.1155 36.4323 34.2743C36.4323 34.5134 36.3873 34.7358 36.2973 34.9436C36.2063 35.1513 36.084 35.3336 35.9275 35.4904C35.772 35.6462 35.59 35.7697 35.3816 35.8599C35.1732 35.95 34.9492 35.9951 34.7125 35.9951C34.4747 35.9951 34.2527 35.95 34.0443 35.8599C33.8359 35.7697 33.6549 35.6462 33.5003 35.4904C33.3467 35.3346 33.2254 35.1523 33.1364 34.9436C33.0474 34.7358 33.0024 34.5124 33.0024 34.2743C33.0024 34.1155 33.0229 33.9636 33.063 33.8166C33.1031 33.6706 33.1609 33.5324 33.2342 33.405C33.3086 33.2776 33.3966 33.161 33.5003 33.0562C33.604 32.9513 33.7195 32.8611 33.8457 32.7876C33.9719 32.7132 34.1088 32.6563 34.2546 32.6152C34.4004 32.574 34.553 32.5524 34.7115 32.5524ZM34.7144 33.2394C34.5716 33.2394 34.4385 33.2668 34.3133 33.3217C34.1881 33.3766 34.0805 33.4501 33.9875 33.5442C33.8956 33.6383 33.8222 33.748 33.7684 33.8725C33.7146 33.9979 33.6872 34.1312 33.6872 34.2743C33.6872 34.4193 33.7146 34.5545 33.7684 34.681C33.8222 34.8074 33.8946 34.9161 33.9875 35.0083C34.0795 35.1004 34.1881 35.1739 34.3133 35.2268C34.4385 35.2797 34.5716 35.3062 34.7144 35.3062C34.8572 35.3062 34.9913 35.2797 35.1175 35.2268C35.2437 35.1739 35.3523 35.1004 35.4452 35.0083C35.5381 34.9161 35.6125 34.8064 35.6663 34.681C35.7201 34.5545 35.7465 34.4193 35.7465 34.2743C35.7465 34.1312 35.7201 33.9979 35.6663 33.8725C35.6125 33.747 35.5391 33.6383 35.4452 33.5442C35.3523 33.4511 35.2427 33.3766 35.1175 33.3217C34.9913 33.2668 34.8572 33.2394 34.7144 33.2394ZM38.9152 35.6237C38.9152 35.5747 38.925 35.5286 38.9436 35.4875C38.9622 35.4463 38.9867 35.411 39.018 35.3807C39.0493 35.3503 39.0864 35.3268 39.1285 35.3101C39.1706 35.2934 39.2156 35.2856 39.2635 35.2856H39.2772C39.3437 35.2856 39.4005 35.2787 39.4455 35.264C39.4905 35.2503 39.5267 35.2278 39.5541 35.1984C39.5824 35.168 39.602 35.1298 39.6147 35.0827C39.6274 35.0357 39.6333 34.9789 39.6333 34.9103V32.9327C39.6333 32.8847 39.6421 32.8396 39.6597 32.7965C39.6773 32.7533 39.7008 32.7161 39.7311 32.6847C39.7615 32.6534 39.7967 32.6279 39.8388 32.6093C39.8798 32.5907 39.9239 32.5809 39.9718 32.5789H39.9826H39.9875H40.0002H41.8345H41.8502C41.8834 32.5789 41.9157 32.5838 41.948 32.5946C41.9519 32.5946 41.9538 32.5946 41.9558 32.5956C41.9578 32.5965 41.9597 32.5975 41.9607 32.5975C42.0311 32.622 42.0888 32.6642 42.1348 32.7239C42.1808 32.7837 42.2033 32.8533 42.2033 32.9327V35.6129C42.2033 35.6619 42.1945 35.708 42.1759 35.7511C42.1573 35.7942 42.1319 35.8324 42.1006 35.8638C42.0693 35.8951 42.0321 35.9206 41.9891 35.9383C41.946 35.9569 41.8991 35.9667 41.8502 35.9667C41.8012 35.9667 41.7562 35.9569 41.7151 35.9383C41.675 35.9196 41.6408 35.8951 41.6114 35.8638C41.5821 35.8324 41.5596 35.7942 41.543 35.7511C41.5263 35.708 41.5175 35.6619 41.5175 35.6129V33.2659H40.3191V34.9103C40.3191 35.0759 40.2966 35.2239 40.2496 35.3542C40.2027 35.4845 40.1352 35.5943 40.0462 35.6854C39.9571 35.7766 39.8485 35.8471 39.7194 35.8961C39.5912 35.9451 39.4445 35.9706 39.2811 35.9726H39.2762H39.2625C39.2146 35.9726 39.1706 35.9628 39.1275 35.9441C39.0855 35.9255 39.0483 35.901 39.017 35.8697C38.9857 35.8383 38.9602 35.8011 38.9426 35.7589C38.924 35.7168 38.9143 35.6717 38.9143 35.6237H38.9152ZM46.6184 32.5515C46.7769 32.5515 46.9285 32.573 47.0753 32.6142C47.221 32.6553 47.359 32.7132 47.4861 32.7867C47.6133 32.8611 47.7297 32.9503 47.8344 33.0552C47.9391 33.16 48.0291 33.2766 48.1034 33.404C48.1778 33.5314 48.2365 33.6696 48.2776 33.8156C48.3187 33.9617 48.3392 34.1145 48.3392 34.2733C48.3392 34.5124 48.2942 34.7349 48.2042 34.9426C48.1132 35.1504 47.9909 35.3326 47.8344 35.4894C47.6789 35.6453 47.4969 35.7687 47.2885 35.8589C47.0802 35.949 46.8561 35.9941 46.6194 35.9941C46.3816 35.9941 46.1596 35.949 45.9512 35.8589C45.7428 35.7687 45.5618 35.6453 45.4073 35.4894C45.2537 35.3336 45.1323 35.1513 45.0433 34.9426C44.9543 34.7349 44.9093 34.5114 44.9093 34.2733C44.9093 34.1145 44.9298 33.9626 44.9699 33.8156C45.0101 33.6696 45.0678 33.5314 45.1411 33.404C45.2155 33.2766 45.3036 33.16 45.4073 33.0552C45.511 32.9503 45.6264 32.8602 45.7526 32.7867C45.8788 32.7122 46.0158 32.6553 46.1615 32.6142C46.3073 32.573 46.4599 32.5515 46.6184 32.5515ZM46.6213 33.2384C46.4785 33.2384 46.3454 33.2659 46.2202 33.3207C46.095 33.3756 45.9874 33.4491 45.8944 33.5432C45.8025 33.6373 45.7291 33.747 45.6753 33.8715C45.6215 33.9969 45.5941 34.1302 45.5941 34.2733C45.5941 34.4183 45.6215 34.5536 45.6753 34.68C45.7291 34.8064 45.8015 34.9152 45.8944 35.0073C45.9864 35.0994 46.095 35.1729 46.2202 35.2258C46.3454 35.2787 46.4785 35.3052 46.6213 35.3052C46.7642 35.3052 46.8982 35.2787 47.0244 35.2258C47.1506 35.1729 47.2592 35.0994 47.3521 35.0073C47.4451 34.9152 47.5194 34.8054 47.5732 34.68C47.627 34.5536 47.6534 34.4183 47.6534 34.2733C47.6534 34.1302 47.627 33.9969 47.5732 33.8715C47.5194 33.7461 47.446 33.6373 47.3521 33.5432C47.2592 33.4501 47.1496 33.3756 47.0244 33.3207C46.8982 33.2659 46.7642 33.2384 46.6213 33.2384ZM51.5011 32.5779H53.1848C53.2337 32.5779 53.2796 32.5867 53.3217 32.6054C53.3638 32.624 53.401 32.6495 53.4323 32.6808C53.4636 32.7122 53.489 32.7494 53.5056 32.7925C53.5232 32.8357 53.532 32.8827 53.532 32.9317C53.532 32.9807 53.5232 33.0258 53.5056 33.0669C53.488 33.1071 53.4636 33.1414 53.4323 33.1708C53.401 33.2002 53.3638 33.2227 53.3217 33.2394C53.2796 33.2561 53.2337 33.2649 53.1848 33.2649H51.82V35.6119C51.82 35.6609 51.8122 35.707 51.7956 35.7501C51.7789 35.7932 51.7564 35.8314 51.7271 35.8628C51.6977 35.8942 51.6625 35.9196 51.6224 35.9373C51.5823 35.9559 51.5373 35.9657 51.4874 35.9657C51.4385 35.9657 51.3925 35.9559 51.3495 35.9373C51.3064 35.9187 51.2683 35.8942 51.237 35.8628C51.2056 35.8314 51.1802 35.7932 51.1626 35.7501C51.144 35.707 51.1342 35.6609 51.1342 35.6119V32.9474V32.9317C51.1342 32.8523 51.1567 32.7827 51.2017 32.723C51.2467 32.6632 51.3035 32.621 51.3739 32.5965C51.3778 32.5965 51.3798 32.5956 51.3817 32.5946C51.3837 32.5936 51.3857 32.5936 51.3866 32.5936C51.3954 32.5897 51.4052 32.5877 51.415 32.5858C51.4248 32.5838 51.4336 32.5818 51.4424 32.5809C51.4512 32.5809 51.459 32.5799 51.4649 32.5789C51.4708 32.5779 51.4776 32.5779 51.4864 32.5779H51.4991H51.5011ZM58.4734 33.8235L56.7556 35.8295C56.7252 35.8697 56.6929 35.901 56.6577 35.9226C56.6225 35.9441 56.5824 35.9579 56.5364 35.9618H56.5149C56.4669 35.9637 56.4249 35.9569 56.3877 35.9432C56.3496 35.9294 56.3163 35.9098 56.2879 35.8853C56.2507 35.854 56.2224 35.8148 56.1999 35.7697C56.1784 35.7246 56.1666 35.6766 56.1666 35.6237V32.917C56.1666 32.869 56.1754 32.8249 56.193 32.7827C56.2106 32.7416 56.2341 32.7063 56.2644 32.6759C56.2948 32.6455 56.33 32.622 56.3721 32.6044C56.4131 32.5867 56.4572 32.5779 56.5051 32.5779C56.553 32.5779 56.5971 32.5867 56.6401 32.6044C56.6822 32.622 56.7194 32.6455 56.7507 32.6759C56.782 32.7063 56.8074 32.7416 56.826 32.7827C56.8446 32.8239 56.8534 32.869 56.8534 32.917V34.6908L58.5449 32.7083C58.582 32.6661 58.6241 32.6338 58.6711 32.6112C58.718 32.5897 58.766 32.5789 58.8168 32.5789C58.8746 32.5789 58.9254 32.5907 58.9695 32.6132C59.0125 32.6357 59.0467 32.6661 59.0731 32.7034C59.1309 32.7651 59.1602 32.8396 59.1602 32.9278V35.6237C59.1602 35.6717 59.1514 35.7158 59.1338 35.757C59.1162 35.7981 59.0917 35.8344 59.0594 35.8648C59.0281 35.8951 58.9919 35.9187 58.9509 35.9363C58.9098 35.9539 58.8648 35.9628 58.8168 35.9628C58.7689 35.9628 58.7249 35.9539 58.6838 35.9363C58.6427 35.9187 58.6055 35.8951 58.5742 35.8648C58.5429 35.8344 58.5175 35.7991 58.4999 35.757C58.4823 35.7158 58.4734 35.6717 58.4734 35.6237V33.8235ZM61.9993 32.917C61.9993 32.869 62.0081 32.8249 62.0247 32.7827C62.0413 32.7416 62.0648 32.7063 62.0961 32.6759C62.1274 32.6455 62.1626 32.622 62.2047 32.6044C62.2458 32.5867 62.2898 32.5779 62.3377 32.5779C62.3857 32.5779 62.4297 32.5867 62.4727 32.6044C62.5148 32.622 62.552 32.6455 62.5833 32.6759C62.6146 32.7063 62.64 32.7416 62.6586 32.7827C62.6772 32.8239 62.686 32.869 62.686 32.917V33.848V33.8637C62.686 33.947 62.7007 34.0244 62.732 34.0969C62.7623 34.1704 62.8054 34.2341 62.8582 34.289C62.912 34.3438 62.9756 34.387 63.048 34.4183C63.1204 34.4497 63.1986 34.4663 63.2808 34.4663C63.363 34.4663 63.4432 34.4507 63.5225 34.4183C63.6017 34.387 63.6721 34.3438 63.7338 34.289C63.7944 34.2341 63.8433 34.1704 63.8805 34.0969C63.9177 34.0234 63.9363 33.946 63.9363 33.8637V32.9278C63.9363 32.8798 63.9451 32.8357 63.9627 32.7935C63.9803 32.7524 64.0048 32.7161 64.0361 32.6847C64.0664 32.6534 64.1026 32.6279 64.1447 32.6103C64.1867 32.5926 64.2308 32.5838 64.2797 32.5838C64.3286 32.5838 64.3746 32.5926 64.4166 32.6103C64.4587 32.6279 64.4959 32.6524 64.5282 32.6847C64.5595 32.7161 64.5849 32.7524 64.6025 32.7935C64.6201 32.8347 64.6289 32.8798 64.6289 32.9278V35.6188C64.6289 35.6678 64.6191 35.7139 64.6006 35.756C64.582 35.7981 64.5575 35.8354 64.5262 35.8667C64.4939 35.8981 64.4567 35.9236 64.4147 35.9412C64.3726 35.9588 64.3276 35.9677 64.2797 35.9677C64.2317 35.9677 64.1877 35.9588 64.1447 35.9412C64.1036 35.9236 64.0674 35.8991 64.0361 35.8667C64.0048 35.8354 63.9803 35.7981 63.9627 35.756C63.9451 35.7139 63.9363 35.6678 63.9363 35.6188L63.9392 34.9504C63.8336 35.0141 63.726 35.0622 63.6134 35.0965C63.5019 35.1308 63.3914 35.1484 63.2818 35.1484C63.1038 35.1484 62.9374 35.1151 62.7819 35.0484C62.6263 34.9818 62.4894 34.8897 62.3739 34.7731C62.2575 34.6565 62.1665 34.5202 62.099 34.3644C62.0325 34.2086 61.9993 34.042 61.9993 33.8637V33.8529V33.848V32.917ZM67.8788 35.9628C67.7888 35.9539 67.7145 35.9187 67.6538 35.8569C67.5932 35.7952 67.5619 35.7178 67.5619 35.6247V32.9229C67.5619 32.8749 67.5707 32.8308 67.5883 32.7886C67.6059 32.7475 67.6304 32.7112 67.6617 32.6798C67.693 32.6485 67.7282 32.623 67.7712 32.6054C67.8133 32.5877 67.8583 32.5789 67.9062 32.5789H69.6819C69.7298 32.5789 69.7738 32.5877 69.8159 32.6054C69.857 32.623 69.8922 32.6475 69.9225 32.6798C69.9528 32.7112 69.9763 32.7475 69.9939 32.7886C70.0115 32.8298 70.0203 32.8749 70.0203 32.9229C70.0203 32.9709 70.0115 33.015 69.9939 33.0562C69.9763 33.0973 69.9528 33.1346 69.9225 33.1659C69.8922 33.1973 69.857 33.2227 69.8159 33.2404C69.7748 33.258 69.7298 33.2668 69.6819 33.2668H68.2486V33.8803H69.3884C69.4363 33.8784 69.4803 33.8872 69.5224 33.9058C69.5635 33.9244 69.5997 33.9489 69.632 33.9803C69.6633 34.0126 69.6887 34.0498 69.7053 34.093C69.7229 34.1371 69.7318 34.1821 69.7318 34.2292C69.7318 34.2772 69.7229 34.3213 69.7053 34.3625C69.6877 34.4026 69.6633 34.4389 69.632 34.4703C69.6007 34.5006 69.5645 34.5251 69.5224 34.5418C69.4813 34.5585 69.4363 34.5673 69.3884 34.5673H68.2486V35.2758H69.6819C69.7298 35.2758 69.7738 35.2846 69.8159 35.3032C69.857 35.3219 69.8922 35.3473 69.9225 35.3787C69.9528 35.4101 69.9763 35.4473 69.9939 35.4894C70.0115 35.5316 70.0203 35.5767 70.0203 35.6247C70.0203 35.6727 70.0115 35.7168 69.9939 35.7579C69.9763 35.7991 69.9528 35.8354 69.9225 35.8667C69.8922 35.8981 69.857 35.9226 69.8159 35.9402C69.7748 35.9579 69.7298 35.9657 69.6819 35.9637H67.8798L67.8788 35.9628ZM75.3658 33.0601C75.3991 33.0914 75.4235 33.1277 75.4392 33.1688C75.4548 33.21 75.4626 33.2521 75.4626 33.2953C75.4626 33.3384 75.4548 33.3805 75.4392 33.4227C75.4235 33.4638 75.3991 33.502 75.3658 33.5354C75.3325 33.5687 75.2944 33.5932 75.2523 33.6098C75.2102 33.6265 75.1672 33.6353 75.1232 33.6363C75.0791 33.6373 75.0361 33.6304 74.994 33.6147C74.952 33.5991 74.9148 33.5755 74.8835 33.5432C74.7798 33.4393 74.6653 33.3629 74.5391 33.3129C74.4129 33.2639 74.2818 33.2394 74.1468 33.2394C74.0099 33.2394 73.8797 33.2659 73.7555 33.3188C73.6313 33.3717 73.5227 33.4452 73.4287 33.5373C73.3348 33.6304 73.2595 33.7402 73.2057 33.8656C73.1509 33.992 73.1235 34.1282 73.1235 34.2723C73.1235 34.4095 73.149 34.5418 73.1998 34.6672C73.2507 34.7927 73.3221 34.9024 73.4131 34.9975C73.5041 35.0916 73.6107 35.168 73.735 35.2239C73.8592 35.2807 73.9932 35.3091 74.137 35.3111C74.274 35.313 74.4041 35.2895 74.5264 35.2405C74.6487 35.1925 74.7651 35.1141 74.8757 35.0073C74.907 34.9759 74.9441 34.9514 74.9862 34.9367C75.0283 34.922 75.0713 34.9152 75.1153 34.9152C75.1594 34.9152 75.2024 34.922 75.2445 34.9367C75.2865 34.9514 75.3237 34.9749 75.355 35.0043C75.3883 35.0377 75.4137 35.0759 75.4304 35.118C75.447 35.1602 75.4548 35.2033 75.4548 35.2474C75.4548 35.2915 75.447 35.3346 75.4313 35.3767C75.4157 35.4189 75.3912 35.4561 75.3599 35.4875C75.1877 35.658 74.997 35.7864 74.7866 35.8706C74.5763 35.9549 74.3581 35.9971 74.1331 35.9971C73.9013 35.9971 73.6821 35.952 73.4757 35.8618C73.2703 35.7717 73.0903 35.6482 72.9367 35.4924C72.7831 35.3356 72.6608 35.1533 72.5708 34.9446C72.4808 34.7349 72.4358 34.5114 72.4358 34.2762C72.4358 34.1263 72.4553 33.9783 72.4935 33.8343C72.5326 33.6892 72.5874 33.554 72.6588 33.4276C72.7302 33.3002 72.8163 33.1826 72.9181 33.0748C73.0198 32.967 73.1343 32.8749 73.2615 32.7965C73.3877 32.719 73.5266 32.6593 73.6763 32.6161C73.8259 32.573 73.9834 32.5505 74.1488 32.5505C74.3708 32.5505 74.5861 32.5916 74.7954 32.6759C75.0048 32.7592 75.1946 32.8876 75.3658 33.0581V33.0601ZM78.965 33.7686H79.1391L79.9892 32.722L80.0108 32.6985L80.0294 32.6749C80.0607 32.6446 80.0969 32.622 80.1379 32.6063C80.1595 32.5975 80.181 32.5907 80.2035 32.5858C80.226 32.5818 80.2504 32.5799 80.2749 32.5799H80.5655C80.6144 32.5799 80.6604 32.5887 80.7024 32.6063C80.7445 32.624 80.7817 32.6485 80.813 32.6808C80.8443 32.7122 80.8697 32.7484 80.8873 32.7896C80.9049 32.8308 80.9137 32.8758 80.9137 32.9239C80.9137 32.9729 80.9049 33.0179 80.8873 33.0591C80.8697 33.1003 80.8453 33.1365 80.813 33.1679C80.7817 33.1982 80.7445 33.2237 80.7024 33.2414C80.6604 33.259 80.6144 33.2678 80.5655 33.2678H80.4099L79.6048 34.2566L80.6819 35.3669C80.7171 35.4022 80.7435 35.4414 80.7601 35.4855C80.7768 35.5296 80.7846 35.5737 80.7836 35.6188C80.7826 35.6639 80.7729 35.709 80.7552 35.753C80.7376 35.7971 80.7112 35.8354 80.676 35.8697C80.6428 35.903 80.6065 35.9265 80.5674 35.9412C80.5283 35.9549 80.4872 35.9608 80.4471 35.9579C80.407 35.9549 80.3669 35.9451 80.3277 35.9265C80.2876 35.9079 80.2514 35.8814 80.2182 35.8461L78.9669 34.5585V35.611C78.9669 35.66 78.9591 35.706 78.9425 35.7491C78.9258 35.7922 78.9024 35.8305 78.874 35.8618C78.8446 35.8932 78.8094 35.9187 78.7693 35.9363C78.7292 35.9549 78.6842 35.9647 78.6343 35.9647C78.5854 35.9647 78.5394 35.9559 78.4964 35.9383C78.4533 35.9206 78.4152 35.8961 78.3839 35.8638C78.3525 35.8324 78.3271 35.7952 78.3095 35.753C78.2909 35.7109 78.2811 35.6649 78.2811 35.6159V32.9297C78.2811 32.8807 78.2909 32.8347 78.3095 32.7925C78.3281 32.7504 78.3525 32.7132 78.3839 32.6818C78.4152 32.6504 78.4533 32.625 78.4964 32.6073C78.5394 32.5897 78.5854 32.5809 78.6343 32.5809C78.6832 32.5809 78.7282 32.5897 78.7693 32.6073C78.8094 32.625 78.8446 32.6485 78.874 32.6798C78.9033 32.7112 78.9258 32.7465 78.9425 32.7886C78.9591 32.8298 78.9669 32.8758 78.9669 32.9248V33.7706L78.965 33.7686Z" fill="black"/>
<path d="M85.772 35.3816H84.373L84.2204 35.757C84.2008 35.803 84.1744 35.8403 84.1411 35.8716C84.1079 35.903 84.0707 35.9255 84.0296 35.9402C83.9885 35.9549 83.9435 35.9618 83.8956 35.9618C83.8476 35.9608 83.8026 35.951 83.7586 35.9314C83.7126 35.9118 83.6755 35.8853 83.6451 35.853C83.6148 35.8207 83.5943 35.7844 83.5806 35.7442C83.5669 35.704 83.562 35.6609 83.5649 35.6158C83.5678 35.5708 83.5776 35.5257 83.5972 35.4806L84.7555 32.7896C84.7858 32.723 84.8279 32.671 84.8817 32.6348C84.9355 32.5985 84.9981 32.5809 85.0695 32.5809C85.1361 32.5809 85.1977 32.5985 85.2535 32.6348C85.3092 32.671 85.3503 32.722 85.3787 32.7876L86.5448 35.4816C86.5644 35.5257 86.5751 35.5698 86.5781 35.6149C86.581 35.6599 86.5751 35.7031 86.5634 35.7432C86.5507 35.7834 86.5311 35.8207 86.5018 35.854C86.4724 35.8873 86.4362 35.9138 86.3922 35.9334C86.3482 35.953 86.3032 35.9628 86.2572 35.9637C86.2112 35.9647 86.1672 35.9579 86.1251 35.9422C86.0831 35.9265 86.0449 35.903 86.0116 35.8716C85.9784 35.8403 85.951 35.804 85.9295 35.7599L85.771 35.3846L85.772 35.3816ZM84.6508 34.6947H85.4902L85.0735 33.6794L84.6508 34.6947ZM91.0245 35.1337H90.5187L89.7791 35.8657C89.7126 35.9324 89.6363 35.9657 89.5521 35.9637C89.468 35.9618 89.3917 35.9275 89.3251 35.8608C89.2919 35.8275 89.2674 35.7893 89.2508 35.7481C89.2342 35.707 89.2254 35.6648 89.2254 35.6207C89.2254 35.5766 89.2332 35.5335 89.2488 35.4914C89.2645 35.4493 89.2899 35.411 89.3251 35.3777L89.7497 34.9573C89.6548 34.9024 89.5688 34.8368 89.4915 34.7593C89.4142 34.6819 89.3477 34.5957 89.2929 34.5016C89.2371 34.4075 89.1941 34.3056 89.1647 34.1978C89.1344 34.089 89.1197 33.9773 89.1197 33.8617C89.1197 33.6833 89.153 33.5167 89.2205 33.3619C89.288 33.2071 89.3809 33.0708 89.4964 32.9552C89.6118 32.8396 89.7478 32.7494 89.9033 32.6818C90.0579 32.6152 90.2252 32.5809 90.4032 32.5809H91.3678C91.4158 32.5809 91.4598 32.5897 91.5019 32.6073C91.543 32.625 91.5792 32.6495 91.6105 32.6818C91.6418 32.7132 91.6672 32.7494 91.6848 32.7906C91.7024 32.8317 91.7112 32.8768 91.7112 32.9248V35.6266C91.7112 35.6746 91.7024 35.7187 91.6848 35.7599C91.6672 35.8011 91.6427 35.8373 91.6105 35.8677C91.5792 35.8981 91.543 35.9216 91.5019 35.9392C91.4608 35.9569 91.4158 35.9657 91.3678 35.9657C91.3199 35.9657 91.2759 35.9569 91.2348 35.9392C91.1937 35.9216 91.1565 35.8981 91.1252 35.8677C91.0939 35.8373 91.0685 35.802 91.0509 35.7599C91.0333 35.7187 91.0245 35.6746 91.0245 35.6266V35.1347V35.1337ZM89.8055 33.8597C89.8055 33.9371 89.8211 34.0116 89.8534 34.0822C89.8847 34.1527 89.9278 34.2155 89.9806 34.2703C90.0344 34.3252 90.097 34.3683 90.1684 34.3997C90.2389 34.4311 90.3142 34.4477 90.3935 34.4477H91.0254V33.2688H90.3935C90.3162 33.2688 90.2408 33.2845 90.1714 33.3168C90.1 33.3492 90.0364 33.3923 89.9835 33.4462C89.9288 33.5001 89.8857 33.5628 89.8544 33.6343C89.8231 33.7059 89.8065 33.7813 89.8065 33.8607L89.8055 33.8597ZM100.1 33.7696H100.274L101.124 32.723L101.146 32.6994L101.165 32.6759C101.196 32.6455 101.232 32.623 101.273 32.6073C101.295 32.5985 101.316 32.5916 101.339 32.5867C101.361 32.5828 101.386 32.5809 101.41 32.5809H101.701C101.75 32.5809 101.796 32.5897 101.838 32.6073C101.88 32.625 101.917 32.6495 101.948 32.6818C101.979 32.7132 102.005 32.7494 102.023 32.7906C102.04 32.8317 102.049 32.8768 102.049 32.9248C102.049 32.9738 102.04 33.0189 102.023 33.0601C102.005 33.1012 101.98 33.1375 101.948 33.1688C101.917 33.1992 101.88 33.2247 101.838 33.2423C101.796 33.26 101.75 33.2688 101.701 33.2688H101.545L100.74 34.2576L101.817 35.3679C101.852 35.4032 101.879 35.4424 101.895 35.4865C101.912 35.5306 101.92 35.5747 101.919 35.6198C101.918 35.6648 101.908 35.7099 101.89 35.754C101.873 35.7981 101.846 35.8363 101.811 35.8706C101.778 35.904 101.742 35.9275 101.703 35.9422C101.663 35.9559 101.622 35.9618 101.582 35.9588C101.542 35.9559 101.502 35.9461 101.463 35.9275C101.423 35.9089 101.387 35.8824 101.353 35.8471L100.102 34.5594V35.6119C100.102 35.6609 100.094 35.707 100.078 35.7501C100.061 35.7932 100.038 35.8314 100.009 35.8628C99.9798 35.8942 99.9446 35.9196 99.9045 35.9373C99.8644 35.9559 99.8194 35.9657 99.7695 35.9657C99.7206 35.9657 99.6746 35.9569 99.6316 35.9392C99.5885 35.9216 99.5504 35.8971 99.5191 35.8648C99.4878 35.8334 99.4623 35.7962 99.4447 35.754C99.4261 35.7119 99.4163 35.6658 99.4163 35.6168V32.9307C99.4163 32.8817 99.4261 32.8357 99.4447 32.7935C99.4633 32.7514 99.4878 32.7141 99.5191 32.6828C99.5504 32.6514 99.5885 32.6259 99.6316 32.6083C99.6746 32.5907 99.7206 32.5818 99.7695 32.5818C99.8184 32.5818 99.8634 32.5907 99.9045 32.6083C99.9446 32.6259 99.9798 32.6495 100.009 32.6808C100.039 32.7122 100.061 32.7475 100.078 32.7896C100.094 32.8308 100.102 32.8768 100.102 32.9258V33.7715L100.1 33.7696ZM104.692 35.6256C104.692 35.5767 104.702 35.5306 104.721 35.4894C104.739 35.4483 104.764 35.413 104.795 35.3826C104.826 35.3522 104.864 35.3287 104.906 35.3121C104.948 35.2954 104.993 35.2876 105.041 35.2876H105.054C105.121 35.2876 105.178 35.2807 105.223 35.266C105.268 35.2523 105.304 35.2297 105.331 35.2003C105.36 35.17 105.379 35.1317 105.392 35.0847C105.405 35.0377 105.41 34.9808 105.41 34.9122V32.9346C105.41 32.8866 105.419 32.8415 105.437 32.7984C105.454 32.7553 105.478 32.7181 105.508 32.6867C105.539 32.6553 105.574 32.6299 105.616 32.6112C105.657 32.5926 105.701 32.5828 105.749 32.5809H105.76H105.765H105.777H107.612H107.627C107.66 32.5809 107.693 32.5858 107.725 32.5965C107.729 32.5965 107.731 32.5965 107.733 32.5975C107.735 32.5985 107.737 32.5995 107.738 32.5995C107.808 32.624 107.866 32.6661 107.912 32.7259C107.958 32.7857 107.98 32.8553 107.98 32.9346V35.6149C107.98 35.6639 107.972 35.7099 107.953 35.753C107.934 35.7962 107.909 35.8344 107.878 35.8657C107.846 35.8971 107.809 35.9226 107.766 35.9402C107.723 35.9588 107.676 35.9686 107.627 35.9686C107.578 35.9686 107.533 35.9588 107.492 35.9402C107.452 35.9216 107.418 35.8971 107.389 35.8657C107.359 35.8344 107.337 35.7962 107.32 35.753C107.303 35.7099 107.295 35.6639 107.295 35.6149V33.2678H106.096V34.9122C106.096 35.0778 106.074 35.2258 106.027 35.3562C105.98 35.4865 105.912 35.5962 105.823 35.6874C105.734 35.7785 105.626 35.8491 105.496 35.8981C105.368 35.9471 105.222 35.9726 105.058 35.9745H105.053H105.04C104.992 35.9745 104.948 35.9647 104.905 35.9461C104.863 35.9275 104.825 35.903 104.794 35.8716C104.763 35.8403 104.737 35.803 104.72 35.7609C104.701 35.7187 104.691 35.6737 104.691 35.6256H104.692ZM113.177 33.8254L111.459 35.8314C111.429 35.8716 111.397 35.903 111.361 35.9245C111.326 35.9461 111.286 35.9598 111.24 35.9637H111.219C111.171 35.9657 111.129 35.9588 111.091 35.9451C111.053 35.9314 111.02 35.9118 110.992 35.8873C110.954 35.8559 110.926 35.8167 110.904 35.7717C110.882 35.7266 110.87 35.6786 110.87 35.6256V32.919C110.87 32.8709 110.879 32.8268 110.897 32.7847C110.914 32.7435 110.938 32.7083 110.968 32.6779C110.998 32.6475 111.034 32.624 111.076 32.6063C111.117 32.5887 111.161 32.5799 111.209 32.5799C111.257 32.5799 111.301 32.5887 111.344 32.6063C111.386 32.624 111.423 32.6475 111.454 32.6779C111.486 32.7083 111.511 32.7435 111.53 32.7847C111.548 32.8259 111.557 32.8709 111.557 32.919V34.6927L113.249 32.7102C113.286 32.6681 113.328 32.6357 113.375 32.6132C113.422 32.5916 113.47 32.5809 113.521 32.5809C113.578 32.5809 113.629 32.5926 113.673 32.6152C113.716 32.6377 113.75 32.6681 113.777 32.7053C113.835 32.7671 113.864 32.8415 113.864 32.9297V35.6256C113.864 35.6737 113.855 35.7178 113.837 35.7589C113.82 35.8001 113.795 35.8363 113.763 35.8667C113.732 35.8971 113.696 35.9206 113.655 35.9383C113.613 35.9559 113.568 35.9647 113.521 35.9647C113.473 35.9647 113.429 35.9559 113.387 35.9383C113.346 35.9206 113.309 35.8971 113.278 35.8667C113.247 35.8363 113.221 35.8011 113.204 35.7589C113.186 35.7178 113.177 35.6737 113.177 35.6256V33.8254ZM117.499 33.9342H119.135V32.919C119.135 32.8709 119.145 32.8268 119.163 32.7847C119.182 32.7435 119.206 32.7083 119.238 32.6779C119.269 32.6475 119.306 32.624 119.348 32.6063C119.39 32.5887 119.435 32.5799 119.483 32.5799C119.531 32.5799 119.575 32.5887 119.617 32.6063C119.658 32.624 119.694 32.6475 119.724 32.6779C119.754 32.7083 119.778 32.7435 119.795 32.7847C119.813 32.8259 119.822 32.8709 119.822 32.919V35.6256C119.822 35.6737 119.813 35.7178 119.795 35.7589C119.778 35.8001 119.753 35.8363 119.721 35.8667C119.69 35.8971 119.653 35.9206 119.612 35.9383C119.571 35.9559 119.526 35.9647 119.478 35.9647C119.43 35.9647 119.386 35.9559 119.345 35.9383C119.304 35.9206 119.267 35.8971 119.236 35.8667C119.204 35.8363 119.179 35.8011 119.161 35.7589C119.144 35.7178 119.135 35.6737 119.135 35.6256V34.6212H117.499V35.6256C117.499 35.6737 117.49 35.7178 117.473 35.7589C117.455 35.8001 117.431 35.8363 117.399 35.8667C117.367 35.8971 117.331 35.9206 117.29 35.9383C117.249 35.9559 117.204 35.9647 117.156 35.9647C117.108 35.9647 117.064 35.9559 117.023 35.9383C116.982 35.9206 116.945 35.8971 116.913 35.8667C116.882 35.8363 116.857 35.8011 116.839 35.7589C116.821 35.7178 116.813 35.6737 116.813 35.6256V32.919C116.813 32.8709 116.821 32.8268 116.839 32.7847C116.857 32.7435 116.881 32.7083 116.913 32.6779C116.945 32.6475 116.982 32.624 117.023 32.6063C117.064 32.5887 117.108 32.5799 117.156 32.5799C117.204 32.5799 117.248 32.5887 117.29 32.6063C117.331 32.624 117.367 32.6475 117.399 32.6779C117.43 32.7083 117.455 32.7435 117.473 32.7847C117.49 32.8259 117.499 32.8709 117.499 32.919V33.9342ZM125.063 33.8254L123.345 35.8314C123.314 35.8716 123.282 35.903 123.247 35.9245C123.212 35.9461 123.171 35.9598 123.125 35.9637H123.104C123.056 35.9657 123.014 35.9588 122.977 35.9451C122.939 35.9314 122.905 35.9118 122.877 35.8873C122.84 35.8559 122.811 35.8167 122.789 35.7717C122.767 35.7266 122.756 35.6786 122.756 35.6256V32.919C122.756 32.8709 122.764 32.8268 122.782 32.7847C122.8 32.7435 122.823 32.7083 122.854 32.6779C122.884 32.6475 122.919 32.624 122.961 32.6063C123.002 32.5887 123.046 32.5799 123.094 32.5799C123.142 32.5799 123.186 32.5887 123.229 32.6063C123.271 32.624 123.308 32.6475 123.34 32.6779C123.371 32.7083 123.396 32.7435 123.415 32.7847C123.434 32.8259 123.442 32.8709 123.442 32.919V34.6927L125.134 32.7102C125.171 32.6681 125.213 32.6357 125.26 32.6132C125.307 32.5916 125.355 32.5809 125.406 32.5809C125.464 32.5809 125.514 32.5926 125.559 32.6152C125.602 32.6377 125.636 32.6681 125.662 32.7053C125.72 32.7671 125.749 32.8415 125.749 32.9297V35.6256C125.749 35.6737 125.74 35.7178 125.723 35.7589C125.705 35.8001 125.681 35.8363 125.649 35.8667C125.617 35.8971 125.581 35.9206 125.54 35.9383C125.499 35.9559 125.454 35.9647 125.406 35.9647C125.358 35.9647 125.314 35.9559 125.273 35.9383C125.232 35.9206 125.195 35.8971 125.163 35.8667C125.132 35.8363 125.107 35.8011 125.089 35.7589C125.071 35.7178 125.063 35.6737 125.063 35.6256V33.8254ZM129.385 33.7696H129.559L130.409 32.723L130.43 32.6994L130.449 32.6759C130.48 32.6455 130.517 32.623 130.558 32.6073C130.579 32.5985 130.601 32.5916 130.623 32.5867C130.646 32.5828 130.67 32.5809 130.695 32.5809H130.985C131.034 32.5809 131.08 32.5897 131.122 32.6073C131.164 32.625 131.201 32.6495 131.233 32.6818C131.264 32.7132 131.289 32.7494 131.307 32.7906C131.325 32.8317 131.333 32.8768 131.333 32.9248C131.333 32.9738 131.325 33.0189 131.307 33.0601C131.289 33.1012 131.265 33.1375 131.233 33.1688C131.201 33.1992 131.164 33.2247 131.122 33.2423C131.08 33.26 131.034 33.2688 130.985 33.2688H130.83L130.024 34.2576L131.102 35.3679C131.137 35.4032 131.163 35.4424 131.18 35.4865C131.196 35.5306 131.204 35.5747 131.203 35.6198C131.202 35.6648 131.193 35.7099 131.175 35.754C131.157 35.7981 131.131 35.8363 131.096 35.8706C131.062 35.904 131.026 35.9275 130.987 35.9422C130.948 35.9559 130.907 35.9618 130.867 35.9588C130.827 35.9559 130.787 35.9461 130.747 35.9275C130.707 35.9089 130.671 35.8824 130.638 35.8471L129.387 34.5594V35.6119C129.387 35.6609 129.379 35.707 129.362 35.7501C129.346 35.7932 129.322 35.8314 129.294 35.8628C129.264 35.8942 129.229 35.9196 129.189 35.9373C129.149 35.9559 129.104 35.9657 129.054 35.9657C129.005 35.9657 128.959 35.9569 128.916 35.9392C128.873 35.9216 128.835 35.8971 128.804 35.8648C128.772 35.8334 128.747 35.7962 128.729 35.754C128.711 35.7119 128.701 35.6658 128.701 35.6168V32.9307C128.701 32.8817 128.711 32.8357 128.729 32.7935C128.748 32.7514 128.772 32.7141 128.804 32.6828C128.835 32.6514 128.873 32.6259 128.916 32.6083C128.959 32.5907 129.005 32.5818 129.054 32.5818C129.103 32.5818 129.148 32.5907 129.189 32.6083C129.229 32.6259 129.264 32.6495 129.294 32.6808C129.323 32.7122 129.346 32.7475 129.362 32.7896C129.379 32.8308 129.387 32.8768 129.387 32.9258V33.7715L129.385 33.7696ZM136.194 35.3826H134.795L134.642 35.7579C134.622 35.804 134.596 35.8412 134.563 35.8726C134.53 35.904 134.492 35.9265 134.451 35.9412C134.41 35.9559 134.365 35.9628 134.317 35.9628C134.269 35.9618 134.224 35.952 134.18 35.9324C134.134 35.9128 134.097 35.8863 134.067 35.854C134.036 35.8216 134.016 35.7854 134.002 35.7452C133.989 35.705 133.984 35.6619 133.987 35.6168C133.99 35.5717 133.999 35.5267 134.019 35.4816L135.177 32.7906C135.208 32.7239 135.25 32.672 135.303 32.6357C135.357 32.5995 135.42 32.5818 135.491 32.5818C135.558 32.5818 135.619 32.5995 135.675 32.6357C135.731 32.672 135.772 32.723 135.8 32.7886L136.966 35.4826C136.986 35.5267 136.997 35.5708 137 35.6158C137.003 35.6609 136.997 35.704 136.985 35.7442C136.972 35.7844 136.953 35.8216 136.923 35.855C136.894 35.8883 136.858 35.9147 136.814 35.9343C136.77 35.9539 136.725 35.9637 136.679 35.9647C136.633 35.9657 136.589 35.9588 136.547 35.9432C136.505 35.9275 136.467 35.904 136.433 35.8726C136.4 35.8412 136.373 35.805 136.351 35.7609L136.193 35.3856L136.194 35.3826ZM135.072 34.6956H135.912L135.495 33.6804L135.072 34.6956Z" fill="black"/>
</svg>
