<svg width="52" height="44" viewBox="0 0 52 44" fill="none" xmlns="http://www.w3.org/2000/svg">
<path d="M23.9765 11.0198C25.4958 11.4236 26.9095 11.8577 28.1852 12.5222C29.4893 13.2013 30.6427 14.1156 31.6073 15.4719L32.8145 17.1692L30.9469 16.25C30.943 16.248 29.4335 15.4885 28.9218 15.1475C26.9007 13.7971 24.5244 13.0729 22.9679 12.5986C22.5795 12.48 22.2381 12.3761 22.0023 12.2958L19.987 11.6108L23.8719 10.9914L23.9775 11.0198H23.9765ZM28.1999 35.191C27.1208 34.8794 25.6181 34.0856 24.2152 33.1546C22.7742 32.1972 21.4173 31.0829 20.711 30.1804L18.995 27.9901L21.3909 29.3993C21.3958 29.4023 23.0511 30.3744 23.5441 30.7027C24.3199 31.2211 25.1446 31.6915 25.9468 32.1491C27.8447 33.232 29.6233 34.2463 30.4773 35.6927L31.9145 38.126L28.2008 35.19L28.1999 35.191ZM30.7836 36.0299C31.396 36.8001 33.4171 40.1085 34.3729 41.6735C34.6293 42.094 34.6126 42.2155 34.7036 42.2899L34.7026 42.2919C34.8504 42.4105 35.0323 42.434 35.2133 42.4036C35.5528 42.3468 35.8844 42.1351 36.0977 41.9274C36.4528 41.5814 36.669 41.0689 36.7864 40.5132C36.9478 39.7459 36.9156 38.9159 36.7893 38.2858C36.6025 37.3479 36.217 36.3366 35.8247 35.3096C35.2632 33.8386 34.6899 32.3344 34.5764 30.7948L34.5696 30.7076L34.5852 30.6116C34.6733 30.0775 34.8005 29.5836 34.9541 29.1112C35.1047 28.6467 35.2789 28.2028 35.4628 27.7598C35.902 26.7044 36.3687 25.7665 36.8314 24.8346C37.5289 23.4332 38.2186 22.0466 38.7352 20.412C38.8428 20.0709 38.9426 19.7289 39.0287 19.3889C39.1177 19.038 39.194 18.6833 39.2547 18.3285L39.2605 18.2942C39.5384 16.9801 39.3271 15.6669 38.7479 14.5331C38.1502 13.361 37.1601 12.3781 35.9147 11.7744C33.4944 10.6034 30.674 11.6363 29.232 12.1645L29.0148 12.2438C28.6763 12.3663 28.1079 12.483 27.4407 12.5663C26.8606 12.6388 26.1689 12.6907 25.4577 12.7025H25.4332C24.723 12.6907 24.0303 12.6388 23.4502 12.5663C22.784 12.483 22.2146 12.3663 21.8761 12.2438L21.6589 12.1645C20.2169 11.6363 17.3955 10.6024 14.9762 11.7744C13.7298 12.3781 12.7407 13.361 12.143 14.5331C11.5638 15.6669 11.3515 16.9801 11.6304 18.2942L11.6362 18.3285C11.6969 18.6843 11.7732 19.038 11.8622 19.3889C11.9483 19.7279 12.0471 20.0699 12.1557 20.412C12.6732 22.0466 13.3629 23.4332 14.0595 24.8346C14.5232 25.7665 14.9898 26.7044 15.4281 27.7598C15.612 28.2038 15.7862 28.6467 15.9368 29.1112C16.0904 29.5845 16.2176 30.0775 16.3057 30.6116L16.3213 30.7066L16.3145 30.7938C16.2 32.3334 15.6267 33.8376 15.0662 35.3086C14.6748 36.3356 14.2884 37.3469 14.1016 38.2848C13.9753 38.9149 13.944 39.7449 14.1045 40.5123C14.2209 41.0679 14.4381 41.5804 14.7932 41.9264C15.0065 42.1341 15.3381 42.3458 15.6776 42.4026C15.8586 42.433 16.0415 42.4095 16.1883 42.2909L16.1873 42.289C16.2783 42.2145 16.2616 42.093 16.518 41.6726C17.4738 40.1075 19.4949 36.7991 20.1073 36.0289C20.4948 35.5418 21.5846 34.4805 22.693 33.7279C23.4796 33.1938 24.3092 32.7979 25.0086 32.7979C26.3333 32.7116 27.4231 33.0664 28.3789 33.6916C29.2916 34.2884 30.0547 35.1165 30.7806 36.0289L30.7836 36.0299ZM33.0248 42.4977C32.0867 40.9621 30.1027 37.7144 29.547 37.0147C28.9101 36.2141 28.2566 35.4977 27.5229 35.0185C26.8361 34.5697 26.0535 34.3159 25.1016 34.3796L25.0761 34.3815L25.0243 34.3796C24.6878 34.3678 24.1468 34.652 23.5813 35.0362C22.6147 35.6927 21.6765 36.6022 21.3488 37.0147C20.7922 37.7144 18.8091 40.9611 17.8709 42.4977C17.5256 43.0631 17.3016 43.4287 17.194 43.5169H17.191C16.6383 43.9657 16.0161 44.0637 15.4223 43.9647C14.7374 43.8501 14.0957 43.4512 13.6965 43.0612C13.0919 42.4722 12.7388 41.6735 12.5627 40.8357C12.3533 39.842 12.3934 38.7777 12.5529 37.9761C12.7652 36.9128 13.1751 35.8378 13.5919 34.7451C14.1016 33.4094 14.621 32.0453 14.7345 30.7693C14.6621 30.3636 14.5604 29.9775 14.4381 29.6002C14.3041 29.1847 14.1436 28.778 13.9724 28.3664C13.5645 27.3845 13.1037 26.4594 12.6468 25.5402C11.9219 24.082 11.2048 22.6404 10.6501 20.8882C10.5376 20.5335 10.431 20.163 10.3322 19.773C10.2382 19.4016 10.1551 19.0145 10.0856 18.6117C9.73343 16.935 10.0044 15.2602 10.743 13.8147C11.4963 12.3399 12.7358 11.1041 14.2943 10.3495C17.3143 8.88742 20.5486 10.0722 22.2019 10.6778L22.4191 10.7572C22.6402 10.8376 23.0843 10.9228 23.6468 10.9924C24.2045 11.062 24.8374 11.111 25.4499 11.1218C26.0623 11.111 26.6952 11.062 27.2529 10.9924C27.8154 10.9219 28.2586 10.8366 28.4806 10.7572L28.6978 10.6778C30.3511 10.0722 33.5854 8.88742 36.6054 10.3495C38.1639 11.1041 39.4034 12.3399 40.1567 13.8147C40.8953 15.2612 41.1663 16.935 40.8141 18.6117C40.7446 19.0145 40.6615 19.4016 40.5676 19.773C40.4687 20.164 40.3611 20.5344 40.2496 20.8882C39.6949 22.6404 38.9778 24.0829 38.2529 25.5402C37.796 26.4594 37.3352 27.3845 36.9273 28.3664C36.7561 28.778 36.5956 29.1857 36.4616 29.6002C36.3393 29.9775 36.2366 30.3646 36.1652 30.7693C36.2787 32.0453 36.7982 33.4094 37.3078 34.7451C37.7246 35.8378 38.1345 36.9128 38.3468 37.9761C38.5063 38.7777 38.5464 39.842 38.337 40.8357C38.1609 41.6735 37.8078 42.4722 37.2032 43.0612C36.803 43.4512 36.1623 43.8501 35.4774 43.9647C34.8846 44.0637 34.2624 43.9657 33.7087 43.5169H33.7057C33.5972 43.4277 33.3731 43.0622 33.0288 42.4977H33.0248Z" fill="black"/>
<path fill-rule="evenodd" clip-rule="evenodd" d="M6.07649 7.88882C6.13714 8.01328 6.32498 8.36901 6.5177 8.59637C6.57249 8.66105 6.61945 8.71298 6.64684 8.7365C6.83272 8.53267 7.01957 8.13382 7.17414 7.69381C7.38644 7.08818 7.53122 6.41788 7.53416 6.05431C7.53612 5.80343 7.50579 5.59176 7.45394 5.38596C7.40013 5.17429 7.32187 4.96261 7.22991 4.72154C7.17317 4.57356 7.10468 4.40696 7.03718 4.24135C6.92565 3.96989 6.81608 3.7004 6.71532 3.40739C6.69575 3.34957 6.63901 3.18787 6.57249 3.04578C6.53042 2.95562 6.56075 2.87134 6.53042 2.87232C6.50205 2.8733 6.39542 3.17415 6.34161 3.32703L6.31422 3.40249C6.21639 3.65336 6.1254 3.92482 6.03834 4.18843L5.94051 4.47948C5.75169 5.03513 5.61864 5.4575 5.58538 5.87595C5.5531 6.28754 5.61767 6.70991 5.82213 7.27536C5.86028 7.38021 5.90039 7.48311 5.94344 7.58503C5.99333 7.70361 6.03638 7.80063 6.07649 7.8898V7.88882Z" fill="#51C7CC"/>
<path d="M6.07652 7.88882C6.13717 8.01328 6.325 8.36901 6.51773 8.59636C6.57251 8.66104 6.61947 8.71298 6.64687 8.7365C6.83274 8.53266 7.0196 8.13381 7.17417 7.6938C7.38646 7.08818 7.53125 6.41787 7.53419 6.0543C7.53614 5.80343 7.50581 5.59175 7.45396 5.38596C7.40016 5.17428 7.32189 4.96261 7.22993 4.72153C7.17319 4.57356 7.10471 4.40696 7.03721 4.24134C6.92568 3.96989 6.81611 3.7004 6.71535 3.40738C6.69578 3.34956 6.63904 3.18787 6.57251 3.04577C6.53045 2.95561 6.56077 2.87134 6.53045 2.87232C6.50208 2.8733 6.39544 3.17415 6.34163 3.32702L6.31424 3.40248C6.21641 3.65336 6.12543 3.92481 6.03836 4.18842L5.94053 4.47948C5.75172 5.03513 5.61867 5.45749 5.58541 5.87595C5.55312 6.28754 5.61769 6.70991 5.82216 7.27535C5.86031 7.38021 5.90042 7.48311 5.94347 7.58503C5.99336 7.7036 6.0364 7.80062 6.07652 7.8898V7.88882ZM8.47922 5.70641C8.49488 5.86811 8.49879 6.02392 8.49096 6.17876C8.48412 6.32869 8.46553 6.48157 8.43814 6.64229V6.64523C8.36476 7.03624 8.19552 7.49977 7.99888 7.95448C7.8042 8.40429 7.58408 8.84136 7.40407 9.18631L7.40211 9.19121C7.28374 9.41464 7.07047 9.82035 6.8347 9.97813L6.81024 9.99479L6.78481 10.0026C6.42088 10.1183 6.16554 9.72726 6.01097 9.49304L5.97282 9.43522C5.82998 9.22159 5.7077 9.00501 5.58541 8.7904C5.54432 8.71788 5.50323 8.64536 5.43671 8.53168L5.43573 8.52874C5.30268 8.29159 5.10604 7.86628 4.94364 7.45469C4.80961 7.1166 4.69809 6.78242 4.66189 6.55997C4.59634 6.16406 4.60026 5.83675 4.65896 5.51727C4.7157 5.20172 4.82429 4.89989 4.96908 4.54514C5.05712 4.33052 5.153 4.11787 5.24887 3.90521L5.33007 3.72588C5.50127 3.34564 5.95227 2.34215 6.22815 2.05795C6.35337 1.9286 6.47077 1.8845 6.60284 1.909C6.71437 1.92958 6.80535 2.00014 6.90709 2.10891C7.11254 2.33039 7.3982 2.95267 7.6056 3.40444C7.67017 3.54556 7.72691 3.67002 7.76506 3.74547C7.89518 4.01007 8.05464 4.34424 8.19063 4.68625C8.32955 5.03709 8.44498 5.39772 8.47922 5.70347V5.70641Z" fill="black"/>
<path fill-rule="evenodd" clip-rule="evenodd" d="M14.8861 4.64705C14.8558 4.78229 14.7785 5.17722 14.7864 5.47513C14.7883 5.55941 14.7922 5.62997 14.7991 5.66623C15.072 5.62507 15.4663 5.43201 15.8625 5.18604C16.4074 4.84795 16.9406 4.41676 17.1695 4.1355C17.328 3.94147 17.4375 3.75821 17.5256 3.56516C17.6166 3.36622 17.688 3.15259 17.7672 2.90661C17.8152 2.75472 17.867 2.58224 17.9179 2.41075C18.0011 2.12949 18.0842 1.8502 18.1899 1.55915C18.2104 1.50133 18.2681 1.33963 18.3053 1.18773C18.3288 1.09072 18.4051 1.04368 18.3816 1.02604C18.3591 1.00938 18.0871 1.17597 17.9492 1.26123L17.8807 1.30337C17.6479 1.43665 17.4062 1.59148 17.1734 1.74142L16.9151 1.90606C16.4201 2.21965 16.0513 2.46562 15.7637 2.7704C15.4809 3.07027 15.2667 3.43972 15.071 4.00811C15.0348 4.11297 15.0016 4.2188 14.9712 4.32562C14.936 4.4491 14.9086 4.552 14.8842 4.64705H14.8861Z" fill="#51C7CC"/>
<path d="M14.8861 4.64706C14.8558 4.7823 14.7785 5.17723 14.7863 5.47514C14.7883 5.55942 14.7922 5.62998 14.799 5.66624C15.072 5.62508 15.4662 5.43202 15.8624 5.18605C16.4074 4.84796 16.9405 4.41677 17.1695 4.13551C17.3279 3.94148 17.4375 3.75822 17.5256 3.56517C17.6165 3.36623 17.688 3.1526 17.7672 2.90662C17.8151 2.75472 17.867 2.58225 17.9179 2.41075C18.001 2.1295 18.0842 1.85021 18.1898 1.55915C18.2104 1.50133 18.2681 1.33964 18.3053 1.18774C18.3287 1.09072 18.405 1.04368 18.3816 1.02605C18.3591 1.00939 18.0871 1.17598 17.9492 1.26124L17.8807 1.30338C17.6478 1.43666 17.4062 1.59149 17.1734 1.74143L16.9151 1.90606C16.4201 2.21966 16.0513 2.46563 15.7636 2.7704C15.4809 3.07028 15.2667 3.43973 15.071 4.00812C15.0348 4.11297 15.0015 4.21881 14.9712 4.32563C14.936 4.44911 14.9086 4.552 14.8841 4.64706H14.8861ZM18.1243 4.45793C18.0353 4.59414 17.9404 4.71664 17.8376 4.83228C17.7378 4.94497 17.6283 5.05179 17.506 5.15959L17.504 5.16155C17.2027 5.41928 16.7801 5.67506 16.3418 5.90437C15.9084 6.13173 15.4633 6.3336 15.1072 6.48942L15.1023 6.49236C14.8704 6.59232 14.4498 6.77361 14.168 6.74813L14.1387 6.74519L14.1132 6.73539C13.7571 6.59722 13.8031 6.13173 13.8305 5.85243L13.8374 5.78383C13.8599 5.52806 13.9 5.28209 13.9401 5.03807C13.9538 4.95477 13.9665 4.87344 13.9861 4.7431L13.987 4.74016C14.032 4.47164 14.1455 4.01694 14.2766 3.59457C14.3842 3.24765 14.5065 2.9174 14.6171 2.72043C14.8147 2.37057 15.0221 2.1197 15.2676 1.90606C15.5103 1.69635 15.7832 1.52877 16.1188 1.34356C16.3213 1.23184 16.5296 1.126 16.738 1.02115L16.9131 0.931967C17.2849 0.743812 18.2652 0.245983 18.6575 0.197965C18.8365 0.176405 18.9549 0.215604 19.0419 0.317522C19.1153 0.40376 19.1427 0.516457 19.1534 0.664434C19.175 0.966267 19.0077 1.62971 18.8854 2.11284C18.8472 2.26278 18.814 2.39605 18.7954 2.47837C18.7308 2.76648 18.6457 3.12712 18.5371 3.47795C18.4256 3.83858 18.2896 4.19137 18.1243 4.45205L18.1223 4.45401L18.1243 4.45793Z" fill="black"/>
<path fill-rule="evenodd" clip-rule="evenodd" d="M3.74231 11.7979C3.85775 11.8734 4.20211 12.0812 4.48386 12.1762C4.56311 12.2037 4.63061 12.2233 4.66681 12.2301C4.72159 11.9596 4.67659 11.5216 4.58267 11.0649C4.45354 10.4358 4.23244 9.78703 4.04852 9.47344C3.92134 9.25785 3.78633 9.09125 3.63665 8.94229C3.48208 8.78844 3.30501 8.64732 3.1025 8.48857C2.97728 8.39057 2.83347 8.28277 2.68966 8.17595C2.45486 8.00054 2.22105 7.8261 1.98528 7.62717C1.93832 7.58797 1.80723 7.47821 1.67614 7.39099C1.59298 7.33513 1.57635 7.24791 1.55091 7.26359C1.52743 7.27927 1.59102 7.59189 1.62233 7.75064L1.63798 7.83002C1.68298 8.09559 1.7456 8.37489 1.80527 8.64634L1.87082 8.94621C1.99408 9.52048 2.09778 9.95069 2.28464 10.326C2.46856 10.6955 2.74151 11.0238 3.20718 11.403C3.29327 11.4736 3.38132 11.5402 3.47034 11.6059C3.57404 11.6813 3.66111 11.7431 3.74133 11.7979H3.74231Z" fill="#51C7CC"/>
<path d="M3.74228 11.7979C3.85772 11.8734 4.20208 12.0812 4.48383 12.1762C4.56308 12.2037 4.63058 12.2233 4.66678 12.2301C4.72156 11.9596 4.67656 11.5216 4.58264 11.0649C4.45351 10.4358 4.23241 9.78704 4.04849 9.47344C3.92131 9.25785 3.7863 9.09125 3.63662 8.9423C3.48205 8.78844 3.30498 8.64732 3.10247 8.48857C2.97725 8.39057 2.83344 8.28277 2.68963 8.17595C2.45483 8.00054 2.22102 7.8261 1.98525 7.62717C1.93829 7.58797 1.8072 7.47821 1.67611 7.39099C1.59295 7.33513 1.57632 7.24792 1.55088 7.2636C1.5274 7.27928 1.59099 7.59189 1.6223 7.75064L1.63795 7.83002C1.68295 8.0956 1.74557 8.37489 1.80524 8.64634L1.87079 8.94622C1.99405 9.52048 2.09775 9.95069 2.28461 10.326C2.46853 10.6955 2.74148 11.0238 3.20715 11.403C3.29324 11.4736 3.38129 11.5402 3.47031 11.6059C3.57401 11.6813 3.66108 11.7431 3.7413 11.7979H3.74228ZM4.67949 8.6875C4.77635 8.81784 4.8595 8.94916 4.9319 9.08537C5.00331 9.21767 5.06592 9.35781 5.12462 9.5097L5.1256 9.51264C5.26354 9.88503 5.35746 10.3701 5.42202 10.8611C5.48659 11.3472 5.52279 11.8352 5.54529 12.2242L5.54627 12.2291C5.55997 12.482 5.5854 12.9396 5.46507 13.1964L5.45235 13.2228L5.43474 13.2434C5.18234 13.5306 4.76265 13.3277 4.50927 13.2052L4.44764 13.1758C4.21578 13.066 3.99957 12.9445 3.78337 12.823C3.71 12.7818 3.63858 12.7407 3.52314 12.678L3.52021 12.676C3.28443 12.5418 2.89605 12.2781 2.54582 12.0096C2.25722 11.7882 1.99014 11.5598 1.84437 11.3883C1.58512 11.0826 1.42077 10.8003 1.30533 10.4956C1.19185 10.1957 1.12924 9.88111 1.07152 9.50186C1.0363 9.27255 1.00988 9.04029 0.98249 8.80804L0.959989 8.61204C0.911074 8.19751 0.781938 7.10484 0.872921 6.71971C0.914009 6.54429 0.992273 6.44629 1.1175 6.39926C1.22315 6.36006 1.33859 6.3728 1.48142 6.41395C1.77198 6.49725 2.33646 6.88336 2.74637 7.16462C2.87453 7.25184 2.98703 7.32925 3.05845 7.37531C3.30596 7.53505 3.6151 7.73888 3.90664 7.96232C4.20697 8.19163 4.4897 8.44055 4.67754 8.68554L4.67949 8.6875Z" fill="black"/>
<path d="M7.31215 16.3382C7.61053 17.8307 8.08403 19.1145 8.56144 20.4129L8.70427 20.8C10.1668 24.7729 11.5277 28.4664 12.0824 32.498C12.0608 32.7136 11.9248 32.9557 11.7654 33.0997C11.6979 33.1615 11.6216 33.2065 11.5374 33.2291C11.4465 33.2536 11.3535 33.2516 11.2576 33.2183C11.1637 33.185 11.0708 33.1213 10.9798 33.0213L10.9289 32.9008C10.8663 31.9531 10.7558 31.1515 10.6041 30.4087C10.4525 29.6678 10.2578 28.9779 10.0299 28.2557L9.95552 28.0205C9.55344 26.7485 9.11516 25.3638 8.43426 23.4117L8.43133 23.4028C8.16621 22.4983 7.85119 21.6438 7.53912 20.7951L7.53716 20.7912C7.0441 19.4516 6.5569 18.1266 6.24189 16.5528C6.21058 16.397 6.18025 16.2333 6.15091 16.0628C6.12351 15.9011 6.09612 15.7316 6.07166 15.5552C6.04916 15.3905 6.02764 15.2191 6.01003 15.0427C5.99242 14.8663 5.97775 14.6908 5.96699 14.5164C5.89655 13.7981 5.95427 13.0954 6.12058 12.4281C6.29374 11.7343 6.58625 11.0777 6.97659 10.4828C7.66727 9.43033 8.53307 8.80314 9.61801 8.36803C10.3224 8.0858 13.2221 7.42725 13.7112 7.58209C13.7142 8.02308 13.272 8.31903 12.5333 8.47485C12.368 8.51013 12.1831 8.54443 11.9933 8.57873C11.5492 8.66105 11.0815 8.74728 10.7049 8.88056C10.1199 9.08832 9.58279 9.38721 9.11125 9.75568C8.62992 10.131 8.2161 10.5808 7.88739 11.0816C7.56455 11.5726 7.32291 12.1155 7.18008 12.6917C7.04214 13.2454 6.99518 13.8275 7.05486 14.4214L7.05681 14.4439C7.0666 14.6095 7.08029 14.7702 7.09595 14.928C7.1116 15.0848 7.13116 15.2445 7.15367 15.4062C7.17519 15.5581 7.19965 15.7149 7.22704 15.8737C7.25345 16.0246 7.2828 16.1794 7.31411 16.3382H7.31215Z" fill="black"/>
<path fill-rule="evenodd" clip-rule="evenodd" d="M3.93695 17.473C4.06706 17.52 4.4486 17.6455 4.74502 17.6749C4.82916 17.6827 4.89862 17.6876 4.93579 17.6857C4.92797 17.4093 4.78611 16.9928 4.59241 16.5685C4.32533 15.9844 3.96434 15.4023 3.71389 15.1387C3.54171 14.9574 3.37247 14.8251 3.19246 14.7144C3.00756 14.5997 2.80309 14.5017 2.57026 14.3929C2.42645 14.3263 2.26112 14.2538 2.09774 14.1822C1.82968 14.0646 1.56261 13.947 1.2877 13.8059C1.23292 13.7775 1.0803 13.7011 0.933559 13.6452C0.840621 13.6099 0.803445 13.5276 0.782901 13.5502C0.763335 13.5707 0.895406 13.8608 0.962908 14.0088L0.995192 14.0823C1.09889 14.3302 1.22216 14.5889 1.34151 14.8398L1.4726 15.1171C1.72207 15.6483 1.91969 16.0452 2.18579 16.3686C2.44797 16.6871 2.78744 16.9448 3.32649 17.2104C3.42627 17.2594 3.52704 17.3054 3.62878 17.3485C3.74716 17.3995 3.84596 17.4397 3.93597 17.475L3.93695 17.473Z" fill="#51C7CC"/>
<path d="M3.93698 17.473C4.06709 17.52 4.44863 17.6455 4.74506 17.6749C4.82919 17.6827 4.89865 17.6876 4.93582 17.6857C4.928 17.4093 4.78614 16.9928 4.59244 16.5685C4.32536 15.9844 3.96437 15.4023 3.71393 15.1387C3.54174 14.9574 3.3725 14.8251 3.19249 14.7144C3.00759 14.5997 2.80313 14.5017 2.57029 14.3929C2.42648 14.3263 2.26115 14.2538 2.09777 14.1822C1.82972 14.0646 1.56264 13.947 1.28774 13.8059C1.23295 13.7775 1.08034 13.7011 0.933592 13.6452C0.840653 13.6099 0.803478 13.5276 0.782933 13.5502C0.763367 13.5707 0.895438 13.8608 0.962941 14.0088L0.995225 14.0823C1.09892 14.3302 1.22219 14.5889 1.34154 14.8398L1.47264 15.1171C1.7221 15.6483 1.91972 16.0452 2.18582 16.3686C2.448 16.6871 2.78747 16.9448 3.32652 17.2104C3.42631 17.2594 3.52707 17.3054 3.62881 17.3485C3.74719 17.3995 3.846 17.4397 3.936 17.475L3.93698 17.473ZM4.15123 14.2312C4.27547 14.3371 4.38504 14.4459 4.48678 14.5625C4.58559 14.6752 4.67853 14.7977 4.77049 14.9319L4.77245 14.9349C4.99061 15.2661 5.19116 15.7179 5.36432 16.1814C5.5365 16.64 5.68129 17.1075 5.79184 17.4808L5.7938 17.4857C5.86326 17.7288 5.99141 18.1688 5.93174 18.4461L5.92587 18.4745L5.91315 18.4981C5.73216 18.8342 5.27725 18.7313 5.00333 18.6696L4.93582 18.6549C4.68538 18.601 4.44667 18.5304 4.20992 18.4608C4.1297 18.4373 4.05046 18.4138 3.92328 18.3785L3.92035 18.3775C3.66012 18.2991 3.22282 18.1306 2.82171 17.9483C2.49105 17.7984 2.17897 17.6357 1.99798 17.5014C1.67612 17.2623 1.45209 17.0242 1.27208 16.7537C1.09403 16.4871 0.961963 16.1941 0.820109 15.8384C0.734018 15.6228 0.655754 15.4023 0.57749 15.1828L0.510965 14.9976C0.37009 14.6046 -0.000686453 13.5688 0.000291849 13.1738C0.00127015 12.9935 0.0550768 12.8808 0.166603 12.8063C0.26052 12.7436 0.37596 12.7309 0.524662 12.7387C0.825979 12.7544 1.46285 13.0033 1.92559 13.1836C2.07038 13.2405 2.19756 13.2895 2.2768 13.3189C2.55464 13.4188 2.90096 13.5482 3.23554 13.6991C3.57892 13.8549 3.91154 14.0333 4.14927 14.2303L4.15123 14.2322V14.2312Z" fill="black"/>
<path fill-rule="evenodd" clip-rule="evenodd" d="M10.2842 5.62017C10.3067 5.75639 10.385 6.15132 10.5043 6.42376C10.5376 6.50117 10.5679 6.56487 10.5884 6.59525C10.8252 6.45316 11.1177 6.12486 11.3916 5.74757C11.7683 5.22818 12.098 4.62746 12.2046 4.27956C12.278 4.04045 12.3103 3.82878 12.3181 3.61612C12.3269 3.39759 12.3122 3.17219 12.2926 2.91544C12.2799 2.75668 12.2623 2.57734 12.2447 2.39997C12.2154 2.10794 12.187 1.81786 12.1752 1.50917C12.1723 1.44743 12.1655 1.27691 12.142 1.1211C12.1273 1.02212 12.1801 0.950582 12.1508 0.942742C12.1234 0.935882 11.9356 1.19362 11.8397 1.32395L11.7918 1.38863C11.6264 1.60031 11.4621 1.8355 11.3026 2.06286L11.1255 2.31373C10.7861 2.79196 10.5376 3.15847 10.3869 3.55046C10.2382 3.93559 10.1805 4.35894 10.2138 4.95869C10.2196 5.06943 10.2294 5.18016 10.2421 5.28992C10.2558 5.4183 10.2695 5.52316 10.2832 5.62017H10.2842Z" fill="#51C7CC"/>
<path d="M10.2842 5.62017C10.3067 5.75639 10.385 6.15132 10.5043 6.42376C10.5376 6.50117 10.5679 6.56487 10.5885 6.59525C10.8252 6.45316 11.1177 6.12486 11.3916 5.74757C11.7683 5.22818 12.098 4.62746 12.2046 4.27956C12.278 4.04045 12.3103 3.82878 12.3181 3.61612C12.3269 3.39759 12.3122 3.17219 12.2927 2.91544C12.2799 2.75668 12.2623 2.57734 12.2447 2.39997C12.2154 2.10794 12.187 1.81786 12.1753 1.50917C12.1723 1.44743 12.1655 1.27691 12.142 1.1211C12.1273 1.02212 12.1802 0.950582 12.1508 0.942742C12.1234 0.935883 11.9356 1.19362 11.8397 1.32395L11.7918 1.38863C11.6264 1.60031 11.4621 1.8355 11.3026 2.06286L11.1255 2.31373C10.7861 2.79196 10.5376 3.15847 10.3869 3.55046C10.2382 3.93559 10.1805 4.35894 10.2138 4.95869C10.2196 5.06943 10.2294 5.18016 10.2421 5.28992C10.2558 5.4183 10.2695 5.52316 10.2832 5.62017H10.2842ZM13.2093 4.21685C13.178 4.37658 13.1369 4.52652 13.0861 4.67254C13.0362 4.81463 12.9755 4.95575 12.9031 5.10079L12.9021 5.10373C12.7202 5.45652 12.4257 5.85341 12.1078 6.23266C11.7927 6.60701 11.4572 6.96372 11.1862 7.24302L11.1833 7.24694C11.0062 7.42725 10.6853 7.75456 10.4153 7.83884L10.3879 7.84766L10.3605 7.84864C9.97897 7.8555 9.84494 7.40765 9.76472 7.13816L9.74516 7.0725C9.66983 6.82751 9.61406 6.58447 9.5583 6.3434C9.53971 6.26108 9.52113 6.18072 9.48982 6.05234V6.0494C9.43014 5.78383 9.36264 5.3203 9.32449 4.87931C9.29318 4.51672 9.28144 4.16491 9.30981 3.94147C9.36068 3.5436 9.45754 3.23099 9.60428 2.94092C9.74907 2.65476 9.93886 2.39605 10.1795 2.09814C10.3243 1.91782 10.4779 1.74142 10.6305 1.56503L10.7597 1.41607C11.0326 1.10052 11.7517 0.268518 12.096 0.0754626C12.2535 -0.0127353 12.3778 -0.0205752 12.4971 0.0401834C12.5979 0.0921222 12.6654 0.1862 12.7319 0.319477C12.8659 0.590931 12.9618 1.26809 13.0313 1.76102C13.0528 1.91488 13.0724 2.05012 13.0861 2.13341C13.135 2.42447 13.1927 2.79 13.225 3.15651C13.2582 3.53282 13.2651 3.91011 13.2113 4.21391L13.2103 4.21685H13.2093Z" fill="black"/>
<path fill-rule="evenodd" clip-rule="evenodd" d="M6.79556 27.6755C6.9335 27.6667 7.33265 27.6265 7.61636 27.5344C7.69658 27.508 7.76213 27.4844 7.79539 27.4678C7.67799 27.2179 7.37961 26.8945 7.03231 26.5838C6.55294 26.1576 5.98846 25.7695 5.65389 25.6293C5.42301 25.5333 5.21561 25.4804 5.00625 25.451C4.79005 25.4206 4.56504 25.4128 4.30774 25.4079C4.14926 25.4049 3.96925 25.4049 3.79022 25.4049C3.49771 25.4049 3.20617 25.4049 2.89801 25.3873C2.83638 25.3834 2.66615 25.3745 2.50962 25.3834C2.40984 25.3883 2.34331 25.3285 2.33353 25.3569C2.32375 25.3834 2.56147 25.596 2.6818 25.7038L2.74148 25.7577C2.93616 25.9429 3.15335 26.1301 3.3627 26.3114L3.59456 26.5123C4.03577 26.8984 4.37622 27.1816 4.75091 27.3698C5.11875 27.555 5.53355 27.655 6.13325 27.6795C6.24478 27.6844 6.35533 27.6853 6.4649 27.6844C6.59306 27.6834 6.69969 27.6804 6.79654 27.6755H6.79556Z" fill="#51C7CC"/>
<path d="M6.79558 27.6755C6.93352 27.6667 7.33267 27.6265 7.61638 27.5344C7.6966 27.508 7.76214 27.4844 7.79541 27.4678C7.67801 27.2179 7.37963 26.8945 7.03233 26.5838C6.55296 26.1576 5.98848 25.7695 5.6539 25.6294C5.42302 25.5333 5.21562 25.4804 5.00627 25.451C4.79006 25.4206 4.56505 25.4128 4.30776 25.4079C4.14927 25.4049 3.96927 25.4049 3.79024 25.4049C3.49773 25.4049 3.20619 25.4049 2.89803 25.3873C2.83639 25.3834 2.66617 25.3746 2.50964 25.3834C2.40985 25.3883 2.34333 25.3285 2.33355 25.3569C2.32376 25.3834 2.56149 25.596 2.68182 25.7038L2.7415 25.7577C2.93618 25.9429 3.15336 26.1301 3.36272 26.3114L3.59458 26.5123C4.03579 26.8984 4.37624 27.1816 4.75093 27.3698C5.11877 27.555 5.53357 27.655 6.13327 27.6795C6.2448 27.6844 6.35535 27.6853 6.46492 27.6844C6.59307 27.6834 6.69971 27.6804 6.79656 27.6755H6.79558ZM5.68814 24.6219C5.84369 24.669 5.98848 24.7239 6.12838 24.7895C6.26436 24.8532 6.39839 24.9277 6.53633 25.0139L6.53927 25.0159C6.87287 25.2315 7.23777 25.5637 7.58214 25.9184C7.92356 26.2693 8.24445 26.6387 8.49587 26.9357L8.49978 26.9396C8.6612 27.1336 8.95567 27.4854 9.01241 27.7628L9.01828 27.7912L9.01633 27.8176C8.986 28.1989 8.52815 28.288 8.25227 28.3419L8.18477 28.3556C7.93335 28.4066 7.68681 28.4389 7.44224 28.4703C7.35908 28.4811 7.27691 28.4919 7.14679 28.5105H7.14386C6.87482 28.5438 6.40622 28.5654 5.965 28.5605C5.60205 28.5565 5.25084 28.533 5.0317 28.483C4.64136 28.3939 4.34102 28.2665 4.0671 28.0911C3.79709 27.9186 3.55838 27.704 3.28543 27.4354C3.1201 27.2728 2.95966 27.1032 2.8002 26.9337L2.66519 26.7906C2.37855 26.4878 1.62232 25.6891 1.46481 25.3265C1.3934 25.1609 1.39633 25.0365 1.46873 24.9228C1.52938 24.8277 1.63015 24.7689 1.76907 24.716C2.0518 24.6092 2.73465 24.5798 3.23065 24.5582C3.38522 24.5514 3.52218 24.5455 3.60632 24.5396C3.90079 24.519 4.26961 24.4975 4.63647 24.5014C5.01311 24.5053 5.38976 24.5347 5.68619 24.619L5.68912 24.62L5.68814 24.6219Z" fill="black"/>
<path fill-rule="evenodd" clip-rule="evenodd" d="M5.36434 22.6081C5.50228 22.6189 5.90339 22.6365 6.1959 22.5855C6.27905 22.5708 6.34753 22.5571 6.38275 22.5454C6.30155 22.2808 6.05306 21.9182 5.75273 21.5624C5.3389 21.0725 4.83508 20.6079 4.523 20.4217C4.30875 20.2934 4.11016 20.212 3.90667 20.1532C3.69731 20.0925 3.47524 20.0533 3.22088 20.0111C3.06435 19.9857 2.8863 19.9602 2.70923 19.9347C2.41965 19.8935 2.13105 19.8524 1.82876 19.7906C1.76908 19.7789 1.60081 19.7456 1.44429 19.7309C1.3445 19.722 1.28776 19.6525 1.27308 19.6799C1.25939 19.7054 1.46483 19.9494 1.56853 20.0729L1.6194 20.1346C1.78571 20.3463 1.97452 20.5619 2.15649 20.7706L2.35704 21.0019C2.73956 21.4468 3.03696 21.7751 3.38034 22.0152C3.71884 22.2514 4.11505 22.4091 4.70497 22.5189C4.81453 22.5395 4.92313 22.5561 5.0327 22.5708C5.15988 22.5875 5.26553 22.6002 5.36238 22.61L5.36434 22.6081Z" fill="#51C7CC"/>
<path d="M5.36432 22.6081C5.50226 22.6189 5.90337 22.6365 6.19588 22.5855C6.27904 22.5708 6.34752 22.5571 6.38274 22.5454C6.30154 22.2808 6.05305 21.9182 5.75271 21.5624C5.33889 21.0725 4.83506 20.6079 4.52298 20.4218C4.30874 20.2934 4.11014 20.212 3.90665 20.1532C3.6973 20.0925 3.47522 20.0533 3.22086 20.0111C3.06434 19.9857 2.88629 19.9602 2.70921 19.9347C2.41964 19.8935 2.13104 19.8524 1.82874 19.7906C1.76906 19.7789 1.6008 19.7456 1.44427 19.7309C1.34448 19.722 1.28774 19.6525 1.27307 19.6799C1.25937 19.7054 1.46481 19.9494 1.56851 20.0729L1.61938 20.1346C1.7857 20.3463 1.97451 20.5619 2.15647 20.7706L2.35702 21.0019C2.73954 21.4468 3.03694 21.7751 3.38033 22.0152C3.71882 22.2514 4.11503 22.4091 4.70495 22.5189C4.81452 22.5395 4.92311 22.5561 5.03268 22.5708C5.15986 22.5875 5.26552 22.6002 5.36237 22.61L5.36432 22.6081ZM4.70104 19.4281C4.84876 19.4967 4.98376 19.5721 5.1129 19.6564C5.23812 19.7387 5.36041 19.8318 5.48465 19.9367L5.48759 19.9386C5.78695 20.1993 6.10098 20.5805 6.39252 20.9803C6.68112 21.3763 6.94624 21.7878 7.15266 22.1171L7.15559 22.121C7.28767 22.3356 7.52931 22.7257 7.54594 23.0089L7.54789 23.0383L7.54202 23.0648C7.45789 23.4371 6.99222 23.4607 6.71145 23.4754L6.64296 23.4793C6.38665 23.494 6.13816 23.491 5.89163 23.4871C5.80749 23.4861 5.72532 23.4852 5.59325 23.4842H5.59031C5.31932 23.4793 4.85267 23.4342 4.41635 23.3666C4.05731 23.3107 3.71295 23.2382 3.50359 23.1578C3.12988 23.0138 2.85009 22.8452 2.60356 22.6326C2.36094 22.4238 2.15549 22.1769 1.92364 21.8721C1.78374 21.6879 1.64873 21.4968 1.51373 21.3057L1.40024 21.145C1.15958 20.8039 0.523686 19.9073 0.419008 19.5251C0.371071 19.3516 0.392594 19.2281 0.480641 19.1262C0.554992 19.041 0.661627 18.9969 0.807394 18.9645C1.10186 18.8989 1.78178 18.9665 2.2768 19.0165C2.43137 19.0321 2.56736 19.0459 2.65149 19.0517C2.94596 19.0733 3.3138 19.1047 3.67675 19.1605C4.04949 19.2174 4.41733 19.3007 4.69908 19.4261L4.70201 19.4271L4.70104 19.4281Z" fill="black"/>
<path fill-rule="evenodd" clip-rule="evenodd" d="M45.4962 7.88882C45.4356 8.01328 45.2477 8.36901 45.055 8.59637C45.0002 8.66105 44.9533 8.71298 44.9259 8.7365C44.74 8.53267 44.5531 8.13382 44.3986 7.69381C44.1863 7.08818 44.0415 6.41788 44.0385 6.05431C44.0366 5.80343 44.0669 5.59176 44.1188 5.38596C44.1726 5.17429 44.2508 4.96261 44.3428 4.72154C44.3995 4.57356 44.468 4.40696 44.5355 4.24135C44.647 3.96989 44.7566 3.7004 44.8574 3.40739C44.8769 3.34957 44.9337 3.18787 45.0002 3.04578C45.0423 2.95562 45.012 2.87134 45.0423 2.87232C45.0706 2.8733 45.1773 3.17415 45.2311 3.32703L45.2585 3.40249C45.3563 3.65336 45.4473 3.92482 45.5344 4.18843L45.6322 4.47948C45.821 5.03513 45.9541 5.4575 45.9873 5.87595C46.0196 6.28754 45.955 6.70991 45.7506 7.27536C45.7124 7.38021 45.6723 7.48311 45.6293 7.58503C45.5794 7.70361 45.5363 7.80063 45.4962 7.8898V7.88882Z" fill="#51C7CC"/>
<path d="M45.4962 7.88882C45.4356 8.01328 45.2477 8.36901 45.055 8.59636C45.0002 8.66104 44.9533 8.71298 44.9259 8.7365C44.74 8.53266 44.5531 8.13381 44.3986 7.6938C44.1863 7.08818 44.0415 6.41787 44.0386 6.0543C44.0366 5.80343 44.0669 5.59175 44.1188 5.38596C44.1726 5.17428 44.2508 4.96261 44.3428 4.72153C44.3996 4.57356 44.468 4.40696 44.5355 4.24134C44.6471 3.96989 44.7566 3.7004 44.8574 3.40738C44.877 3.34956 44.9337 3.18787 45.0002 3.04577C45.0423 2.95561 45.012 2.87134 45.0423 2.87232C45.0707 2.8733 45.1773 3.17415 45.2311 3.32702L45.2585 3.40248C45.3563 3.65336 45.4473 3.92481 45.5344 4.18842L45.6322 4.47948C45.821 5.03513 45.9541 5.45749 45.9873 5.87595C46.0196 6.28754 45.955 6.70991 45.7506 7.27535C45.7124 7.38021 45.6723 7.48311 45.6293 7.58503C45.5794 7.7036 45.5363 7.80062 45.4962 7.8898V7.88882ZM43.0935 5.70641C43.0779 5.86811 43.074 6.02392 43.0818 6.17876C43.0886 6.32869 43.1072 6.48157 43.1346 6.64229V6.64523C43.208 7.03624 43.3772 7.49977 43.5739 7.95448C43.7685 8.40429 43.9887 8.84136 44.1687 9.18631L44.1706 9.19121C44.289 9.41464 44.5023 9.82035 44.738 9.97813L44.7625 9.99479L44.7879 10.0026C45.1519 10.1183 45.4072 9.72726 45.5618 9.49304L45.5999 9.43522C45.7428 9.22159 45.865 9.00501 45.9873 8.7904C46.0284 8.71788 46.0695 8.64536 46.136 8.53168L46.137 8.52874C46.2701 8.29159 46.4667 7.86628 46.6291 7.45469C46.7631 7.1166 46.8747 6.78242 46.9108 6.55997C46.9764 6.16406 46.9725 5.83675 46.9138 5.51727C46.857 5.20172 46.7484 4.89989 46.6037 4.54514C46.5156 4.33052 46.4197 4.11787 46.3239 3.90521L46.2427 3.72588C46.0715 3.34564 45.6205 2.34215 45.3446 2.05795C45.2194 1.9286 45.102 1.8845 44.9699 1.909C44.8584 1.92958 44.7674 2.00014 44.6656 2.10891C44.4602 2.33039 44.1745 2.95267 43.9671 3.40444C43.9026 3.54556 43.8458 3.67002 43.8077 3.74547C43.6776 4.01007 43.5181 4.34424 43.3821 4.68625C43.2432 5.03709 43.1278 5.39772 43.0935 5.70347V5.70641Z" fill="black"/>
<path fill-rule="evenodd" clip-rule="evenodd" d="M36.6876 4.64705C36.7179 4.78229 36.7952 5.17722 36.7874 5.47513C36.7854 5.55941 36.7815 5.62997 36.7747 5.66623C36.5017 5.62507 36.1075 5.43201 35.7113 5.18604C35.1664 4.84795 34.6332 4.41676 34.4043 4.1355C34.2458 3.94147 34.1362 3.75821 34.0482 3.56516C33.9572 3.36622 33.8858 3.15259 33.8065 2.90661C33.7586 2.75472 33.7067 2.58224 33.6559 2.41075C33.5727 2.12949 33.4895 1.8502 33.3839 1.55915C33.3633 1.50133 33.3056 1.33963 33.2685 1.18773C33.245 1.09072 33.1687 1.04368 33.1921 1.02604C33.2146 1.00938 33.4866 1.17597 33.6246 1.26123L33.693 1.30337C33.9259 1.43665 34.1675 1.59148 34.4004 1.74142L34.6586 1.90606C35.1536 2.21965 35.5225 2.46562 35.8101 2.7704C36.0928 3.07027 36.3071 3.43972 36.5027 4.00811C36.5389 4.11297 36.5722 4.2188 36.6025 4.32562C36.6377 4.4491 36.6651 4.552 36.6896 4.64705H36.6876Z" fill="#51C7CC"/>
<path d="M36.6876 4.64706C36.7179 4.7823 36.7952 5.17723 36.7874 5.47514C36.7854 5.55942 36.7815 5.62998 36.7747 5.66624C36.5017 5.62508 36.1075 5.43202 35.7113 5.18605C35.1663 4.84796 34.6332 4.41677 34.4042 4.13551C34.2458 3.94148 34.1362 3.75822 34.0481 3.56517C33.9572 3.36623 33.8857 3.1526 33.8065 2.90662C33.7586 2.75472 33.7067 2.58225 33.6558 2.41075C33.5727 2.1295 33.4895 1.85021 33.3839 1.55915C33.3633 1.50133 33.3056 1.33964 33.2684 1.18774C33.245 1.09072 33.1687 1.04368 33.1921 1.02605C33.2146 1.00939 33.4866 1.17598 33.6245 1.26124L33.693 1.30338C33.9259 1.43666 34.1675 1.59149 34.4003 1.74143L34.6586 1.90606C35.1536 2.21966 35.5224 2.46563 35.8101 2.7704C36.0928 3.07028 36.307 3.43973 36.5027 4.00812C36.5389 4.11297 36.5722 4.21881 36.6025 4.32563C36.6377 4.44911 36.6651 4.552 36.6896 4.64706H36.6876ZM33.4494 4.45793C33.5384 4.59414 33.6333 4.71664 33.7361 4.83228C33.8359 4.94497 33.9454 5.05179 34.0677 5.15959L34.0697 5.16155C34.371 5.41928 34.7936 5.67506 35.2319 5.90437C35.6653 6.13173 36.1104 6.3336 36.4665 6.48942L36.4714 6.49236C36.7033 6.59232 37.1239 6.77361 37.4057 6.74813L37.435 6.74519L37.4605 6.73539C37.8166 6.59722 37.7706 6.13173 37.7432 5.85243L37.7363 5.78383C37.7138 5.52806 37.6737 5.28209 37.6336 5.03807C37.6199 4.95477 37.6072 4.87344 37.5876 4.7431L37.5867 4.74016C37.5417 4.47164 37.4282 4.01694 37.2971 3.59457C37.1895 3.24765 37.0672 2.9174 36.9566 2.72043C36.759 2.37057 36.5516 2.1197 36.3061 1.90606C36.0634 1.69635 35.7905 1.52877 35.4549 1.34356C35.2524 1.23184 35.0441 1.126 34.8357 1.02115L34.6606 0.931967C34.2888 0.743812 33.3085 0.245983 32.9162 0.197965C32.7372 0.176405 32.6188 0.215604 32.5318 0.317522C32.4584 0.40376 32.431 0.516457 32.4203 0.664434C32.3987 0.966267 32.566 1.62971 32.6883 2.11284C32.7265 2.26278 32.7597 2.39605 32.7783 2.47837C32.8429 2.76648 32.928 3.12712 33.0366 3.47795C33.1481 3.83858 33.2841 4.19137 33.4494 4.45205L33.4514 4.45401L33.4494 4.45793Z" fill="black"/>
<path fill-rule="evenodd" clip-rule="evenodd" d="M47.8305 11.798C47.715 11.8734 47.3707 12.0812 47.0889 12.1762C47.0097 12.2037 46.9422 12.2233 46.906 12.2301C46.8512 11.9596 46.8962 11.5216 46.9901 11.0649C47.1192 10.4358 47.3403 9.78704 47.5243 9.47345C47.6514 9.25785 47.7864 9.09125 47.9361 8.9423C48.0907 8.78844 48.2678 8.64733 48.4703 8.48857C48.5955 8.39057 48.7393 8.28277 48.8831 8.17596C49.1179 8.00054 49.3517 7.8261 49.5875 7.62717C49.6345 7.58797 49.7656 7.47821 49.8966 7.39099C49.9798 7.33514 49.9964 7.24792 50.0219 7.2636C50.0453 7.27928 49.9818 7.59189 49.9505 7.75065L49.9348 7.83002C49.8898 8.0956 49.8272 8.37489 49.7675 8.64635L49.702 8.94622C49.5787 9.52048 49.475 9.9507 49.2881 10.326C49.1042 10.6955 48.8313 11.0238 48.3656 11.403C48.2795 11.4736 48.1915 11.5402 48.1024 11.6059C47.9987 11.6813 47.9117 11.7431 47.8314 11.798H47.8305Z" fill="#51C7CC"/>
<path d="M47.8304 11.7979C47.715 11.8734 47.3706 12.0812 47.0889 12.1762C47.0096 12.2037 46.9421 12.2233 46.9059 12.2301C46.8512 11.9596 46.8962 11.5216 46.9901 11.0649C47.1192 10.4358 47.3403 9.78704 47.5242 9.47344C47.6514 9.25785 47.7864 9.09125 47.9361 8.9423C48.0907 8.78844 48.2677 8.64732 48.4702 8.48857C48.5955 8.39057 48.7393 8.28277 48.8831 8.17595C49.1179 8.00054 49.3517 7.8261 49.5875 7.62717C49.6344 7.58797 49.7655 7.47821 49.8966 7.39099C49.9798 7.33513 49.9964 7.24792 50.0218 7.2636C50.0453 7.27928 49.9817 7.59189 49.9504 7.75064L49.9348 7.83002C49.8898 8.0956 49.8271 8.37489 49.7675 8.64634L49.7019 8.94622C49.5787 9.52048 49.475 9.95069 49.2881 10.326C49.1042 10.6955 48.8312 11.0238 48.3656 11.403C48.2795 11.4736 48.1914 11.5402 48.1024 11.6059C47.9987 11.6813 47.9116 11.7431 47.8314 11.7979H47.8304ZM46.8932 8.6875C46.7964 8.81784 46.7132 8.94916 46.6408 9.08537C46.5694 9.21767 46.5068 9.35781 46.4481 9.5097L46.4471 9.51264C46.3092 9.88503 46.2153 10.3701 46.1507 10.8611C46.0861 11.3472 46.0499 11.8352 46.0274 12.2242L46.0264 12.2291C46.0128 12.482 45.9873 12.9396 46.1076 13.1964L46.1204 13.2228L46.138 13.2434C46.3904 13.5306 46.8101 13.3277 47.0634 13.2052L47.1251 13.1758C47.3569 13.066 47.5731 12.9445 47.7893 12.823C47.8627 12.7818 47.9341 12.7407 48.0496 12.678L48.0525 12.676C48.2883 12.5418 48.6767 12.2781 49.0269 12.0096C49.3155 11.7882 49.5826 11.5598 49.7283 11.3883C49.9876 11.0826 50.1519 10.8003 50.2674 10.4956C50.3809 10.1957 50.4435 9.88111 50.5012 9.50186C50.5364 9.27255 50.5628 9.04029 50.5902 8.80804L50.6127 8.61204C50.6616 8.19751 50.7908 7.10484 50.6998 6.71971C50.6587 6.54429 50.5804 6.44629 50.4552 6.39926C50.3496 6.36006 50.2341 6.3728 50.0913 6.41395C49.8007 6.49725 49.2363 6.88336 48.8263 7.16462C48.6982 7.25184 48.5857 7.32925 48.5143 7.37531C48.2668 7.53505 47.9576 7.73888 47.6661 7.96232C47.3657 8.19163 47.083 8.44055 46.8952 8.68554L46.8932 8.6875Z" fill="black"/>
<path d="M44.2606 16.3382C43.9622 17.8307 43.4887 19.1145 43.0113 20.4129L42.8685 20.8C41.4059 24.7729 40.0451 28.4664 39.4904 32.498C39.5119 32.7136 39.6479 32.9557 39.8074 33.0997C39.8749 33.1615 39.9512 33.2065 40.0353 33.2291C40.1263 33.2536 40.2192 33.2516 40.3151 33.2183C40.409 33.185 40.502 33.1213 40.593 33.0213L40.6438 32.9008C40.7064 31.9531 40.817 31.1515 40.9686 30.4087C41.1203 29.6678 41.3149 28.9779 41.5429 28.2557L41.6172 28.0205C42.0193 26.7485 42.4576 25.3638 43.1385 23.4117L43.1414 23.4028C43.4066 22.4983 43.7216 21.6438 44.0336 20.7951L44.0356 20.7912C44.5287 19.4516 45.0159 18.1266 45.3309 16.5528C45.3622 16.397 45.3925 16.2333 45.4219 16.0628C45.4493 15.9011 45.4766 15.7316 45.5011 15.5552C45.5236 15.3905 45.5451 15.2191 45.5627 15.0427C45.5803 14.8663 45.595 14.6908 45.6058 14.5164C45.6762 13.7981 45.6185 13.0954 45.4522 12.4281C45.279 11.7343 44.9865 11.0777 44.5962 10.4828C43.9055 9.43033 43.0397 8.80314 41.9548 8.36803C41.2504 8.0858 38.3507 7.42725 37.8615 7.58209C37.8586 8.02308 38.3008 8.31903 39.0394 8.47485C39.2047 8.51013 39.3896 8.54443 39.5794 8.57873C40.0236 8.66105 40.4912 8.74728 40.8679 8.88056C41.4529 9.08832 41.99 9.38721 42.4615 9.75568C42.9428 10.131 43.3567 10.5808 43.6854 11.0816C44.0082 11.5726 44.2499 12.1155 44.3927 12.6917C44.5306 13.2454 44.5776 13.8275 44.5179 14.4214L44.5159 14.4439C44.5062 14.6095 44.4925 14.7702 44.4768 14.928C44.4612 15.0848 44.4416 15.2445 44.4191 15.4062C44.3976 15.5581 44.3731 15.7149 44.3457 15.8737C44.3193 16.0246 44.29 16.1794 44.2587 16.3382H44.2606Z" fill="black"/>
<path fill-rule="evenodd" clip-rule="evenodd" d="M47.6358 17.473C47.5057 17.52 47.1241 17.6455 46.8277 17.6749C46.7436 17.6827 46.6741 17.6876 46.6369 17.6857C46.6448 17.4093 46.7866 16.9928 46.9803 16.5685C47.2474 15.9844 47.6084 15.4023 47.8588 15.1387C48.031 14.9574 48.2003 14.8251 48.3803 14.7144C48.5652 14.5997 48.7696 14.5017 49.0025 14.3929C49.1463 14.3263 49.3116 14.2538 49.475 14.1822C49.743 14.0646 50.0101 13.947 50.285 13.8059C50.3398 13.7775 50.4924 13.7011 50.6392 13.6452C50.7321 13.6099 50.7693 13.5276 50.7898 13.5502C50.8094 13.5707 50.6773 13.8608 50.6098 14.0088L50.5775 14.0823C50.4738 14.3302 50.3506 14.5889 50.2312 14.8398L50.1001 15.1171C49.8507 15.6483 49.653 16.0452 49.3869 16.3686C49.1248 16.6871 48.7853 16.9448 48.2462 17.2104C48.1465 17.2594 48.0457 17.3054 47.9439 17.3485C47.8256 17.3995 47.7268 17.4397 47.6368 17.475L47.6358 17.473Z" fill="#51C7CC"/>
<path d="M47.6358 17.473C47.5056 17.52 47.1241 17.6455 46.8277 17.6749C46.7435 17.6827 46.6741 17.6876 46.6369 17.6857C46.6447 17.4093 46.7866 16.9928 46.9803 16.5685C47.2474 15.9844 47.6084 15.4023 47.8588 15.1387C48.031 14.9574 48.2002 14.8251 48.3802 14.7144C48.5651 14.5997 48.7696 14.5017 49.0024 14.3929C49.1463 14.3263 49.3116 14.2538 49.475 14.1822C49.743 14.0646 50.0101 13.947 50.285 13.8059C50.3398 13.7775 50.4924 13.7011 50.6391 13.6452C50.7321 13.6099 50.7693 13.5276 50.7898 13.5502C50.8094 13.5707 50.6773 13.8608 50.6098 14.0088L50.5775 14.0823C50.4738 14.3302 50.3505 14.5889 50.2312 14.8398L50.1001 15.1171C49.8506 15.6483 49.653 16.0452 49.3869 16.3686C49.1247 16.6871 48.7853 16.9448 48.2462 17.2104C48.1464 17.2594 48.0457 17.3054 47.9439 17.3485C47.8255 17.3995 47.7267 17.4397 47.6367 17.475L47.6358 17.473ZM47.4215 14.2312C47.2973 14.3371 47.1877 14.4459 47.086 14.5625C46.9871 14.6752 46.8942 14.7977 46.8022 14.9319L46.8003 14.9349C46.5821 15.2661 46.3816 15.7179 46.2084 16.1814C46.0362 16.64 45.8914 17.1075 45.7809 17.4808L45.7789 17.4857C45.7095 17.7288 45.5813 18.1688 45.641 18.4461L45.6469 18.4745L45.6596 18.4981C45.8406 18.8342 46.2955 18.7313 46.5694 18.6696L46.6369 18.6549C46.8874 18.601 47.1261 18.5304 47.3628 18.4608C47.443 18.4373 47.5223 18.4138 47.6495 18.3785L47.6524 18.3775C47.9126 18.2991 48.3499 18.1306 48.751 17.9483C49.0817 17.7984 49.3938 17.6357 49.5748 17.5014C49.8966 17.2623 50.1206 17.0242 50.3007 16.7537C50.4787 16.4871 50.6108 16.1941 50.7526 15.8384C50.8387 15.6228 50.917 15.4023 50.9952 15.1828L51.0618 14.9976C51.2026 14.6046 51.5734 13.5688 51.5724 13.1738C51.5715 12.9935 51.5177 12.8808 51.4061 12.8063C51.3122 12.7436 51.1968 12.7309 51.0481 12.7387C50.7468 12.7544 50.1099 13.0033 49.6471 13.1836C49.5024 13.2405 49.3752 13.2895 49.2959 13.3189C49.0181 13.4188 48.6718 13.5482 48.3372 13.6991C47.9938 13.8549 47.6612 14.0333 47.4235 14.2303L47.4215 14.2322V14.2312Z" fill="black"/>
<path fill-rule="evenodd" clip-rule="evenodd" d="M41.2895 5.62017C41.267 5.75639 41.1887 6.15132 41.0694 6.42376C41.0361 6.50117 41.0058 6.56487 40.9852 6.59525C40.7485 6.45316 40.456 6.12486 40.1821 5.74757C39.8054 5.22818 39.4757 4.62746 39.3691 4.27956C39.2957 4.04045 39.2634 3.82878 39.2556 3.61612C39.2468 3.39759 39.2615 3.17219 39.281 2.91544C39.2938 2.75668 39.3114 2.57734 39.329 2.39997C39.3583 2.10794 39.3867 1.81786 39.3984 1.50917C39.4014 1.44743 39.4082 1.27691 39.4317 1.1211C39.4464 1.02212 39.3935 0.950582 39.4229 0.942742C39.4503 0.935882 39.6381 1.19362 39.734 1.32395L39.7819 1.38863C39.9473 1.60031 40.1116 1.8355 40.2711 2.06286L40.4482 2.31373C40.7876 2.79196 41.0361 3.15847 41.1868 3.55046C41.3355 3.93559 41.3932 4.35894 41.3599 4.95869C41.3541 5.06943 41.3443 5.18016 41.3316 5.28992C41.3179 5.4183 41.3042 5.52316 41.2905 5.62017H41.2895Z" fill="#51C7CC"/>
<path d="M41.2895 5.62017C41.267 5.75639 41.1887 6.15132 41.0694 6.42376C41.0361 6.50117 41.0058 6.56487 40.9853 6.59525C40.7485 6.45316 40.456 6.12486 40.1821 5.74757C39.8054 5.22818 39.4757 4.62746 39.3691 4.27956C39.2957 4.04045 39.2634 3.82878 39.2556 3.61612C39.2468 3.39759 39.2615 3.17219 39.2811 2.91544C39.2938 2.75668 39.3114 2.57734 39.329 2.39997C39.3583 2.10794 39.3867 1.81786 39.3984 1.50917C39.4014 1.44743 39.4082 1.27691 39.4317 1.1211C39.4464 1.02212 39.3936 0.950582 39.4229 0.942742C39.4503 0.935883 39.6381 1.19362 39.734 1.32395L39.7819 1.38863C39.9473 1.60031 40.1116 1.8355 40.2711 2.06286L40.4482 2.31373C40.7876 2.79196 41.0361 3.15847 41.1868 3.55046C41.3355 3.93559 41.3932 4.35894 41.3599 4.95869C41.3541 5.06943 41.3443 5.18016 41.3316 5.28992C41.3179 5.4183 41.3042 5.52316 41.2905 5.62017H41.2895ZM38.3644 4.21685C38.3957 4.37658 38.4368 4.52652 38.4876 4.67254C38.5375 4.81463 38.5982 4.95575 38.6706 5.10079L38.6716 5.10373C38.8535 5.45652 39.148 5.85341 39.466 6.23266C39.781 6.60701 40.1165 6.96372 40.3875 7.24302L40.3904 7.24694C40.5675 7.42725 40.8884 7.75456 41.1584 7.83884L41.1858 7.84766L41.2132 7.84864C41.5947 7.8555 41.7288 7.40765 41.809 7.13816L41.8286 7.0725C41.9039 6.82751 41.9596 6.58447 42.0154 6.3434C42.034 6.26108 42.0526 6.18072 42.0839 6.05234V6.0494C42.1436 5.78383 42.2111 5.3203 42.2492 4.87931C42.2805 4.51672 42.2923 4.16491 42.2639 3.94147C42.213 3.5436 42.1162 3.23099 41.9694 2.94092C41.8246 2.65476 41.6348 2.39605 41.3942 2.09814C41.2494 1.91782 41.0958 1.74142 40.9432 1.56503L40.8141 1.41607C40.5411 1.10052 39.8221 0.268518 39.4777 0.0754626C39.3202 -0.0127353 39.1959 -0.0205752 39.0766 0.0401834C38.9758 0.0921222 38.9083 0.1862 38.8418 0.319477C38.7078 0.590931 38.6119 1.26809 38.5424 1.76102C38.5209 1.91488 38.5013 2.05012 38.4876 2.13341C38.4387 2.42447 38.381 2.79 38.3487 3.15651C38.3155 3.53282 38.3086 3.91011 38.3624 4.21391L38.3634 4.21685H38.3644Z" fill="black"/>
<path fill-rule="evenodd" clip-rule="evenodd" d="M44.7772 27.6755C44.6392 27.6667 44.2401 27.6265 43.9564 27.5344C43.8762 27.508 43.8106 27.4844 43.7773 27.4678C43.8947 27.2179 44.1931 26.8945 44.5404 26.5838C45.0198 26.1576 45.5843 25.7695 45.9188 25.6293C46.1497 25.5333 46.3571 25.4804 46.5665 25.451C46.7827 25.4206 47.0077 25.4128 47.265 25.4079C47.4235 25.4049 47.6035 25.4049 47.7825 25.4049C48.075 25.4049 48.3666 25.4049 48.6747 25.3873C48.7364 25.3834 48.9066 25.3745 49.0631 25.3834C49.1629 25.3883 49.2294 25.3285 49.2392 25.3569C49.249 25.3834 49.0113 25.596 48.8909 25.7038L48.8313 25.7577C48.6366 25.9429 48.4194 26.1301 48.21 26.3114L47.9782 26.5123C47.537 26.8984 47.1965 27.1816 46.8218 27.3698C46.454 27.555 46.0392 27.655 45.4395 27.6795C45.328 27.6844 45.2174 27.6853 45.1078 27.6844C44.9797 27.6834 44.873 27.6804 44.7762 27.6755H44.7772Z" fill="#51C7CC"/>
<path d="M44.7772 27.6755C44.6393 27.6667 44.2401 27.6265 43.9564 27.5344C43.8762 27.508 43.8106 27.4844 43.7774 27.4678C43.8948 27.2179 44.1931 26.8945 44.5404 26.5838C45.0198 26.1576 45.5843 25.7695 45.9189 25.6294C46.1497 25.5333 46.3571 25.4804 46.5665 25.451C46.7827 25.4206 47.0077 25.4128 47.265 25.4079C47.4235 25.4049 47.6035 25.4049 47.7825 25.4049C48.075 25.4049 48.3666 25.4049 48.6747 25.3873C48.7364 25.3834 48.9066 25.3746 49.0631 25.3834C49.1629 25.3883 49.2294 25.3285 49.2392 25.3569C49.249 25.3834 49.0113 25.596 48.891 25.7038L48.8313 25.7577C48.6366 25.9429 48.4194 26.1301 48.2101 26.3114L47.9782 26.5123C47.537 26.8984 47.1965 27.1816 46.8218 27.3698C46.454 27.555 46.0392 27.655 45.4395 27.6795C45.328 27.6844 45.2174 27.6853 45.1079 27.6844C44.9797 27.6834 44.8731 27.6804 44.7762 27.6755H44.7772ZM45.8846 24.6219C45.7291 24.669 45.5843 24.7239 45.4444 24.7895C45.3084 24.8532 45.1744 24.9277 45.0364 25.0139L45.0335 25.0159C44.6999 25.2315 44.335 25.5637 43.9906 25.9184C43.6492 26.2693 43.3283 26.6387 43.0769 26.9357L43.073 26.9396C42.9116 27.1336 42.6171 27.4854 42.5604 27.7628L42.5545 27.7912L42.5564 27.8176C42.5868 28.1989 43.0446 28.288 43.3205 28.3419L43.388 28.3556C43.6394 28.4066 43.886 28.4389 44.1305 28.4703C44.2137 28.4811 44.2959 28.4919 44.426 28.5105H44.4289C44.6979 28.5438 45.1666 28.5654 45.6078 28.5605C45.9707 28.5565 46.3219 28.533 46.5411 28.483C46.9314 28.3939 47.2317 28.2665 47.5057 28.0911C47.7757 27.9186 48.0144 27.704 48.2873 27.4354C48.4527 27.2728 48.6131 27.1032 48.7726 26.9337L48.9076 26.7906C49.1942 26.4878 49.9505 25.6891 50.108 25.3265C50.1794 25.1609 50.1764 25.0365 50.104 24.9228C50.0434 24.8277 49.9426 24.7689 49.8037 24.716C49.521 24.6092 48.8381 24.5798 48.3421 24.5582C48.1876 24.5514 48.0506 24.5455 47.9665 24.5396C47.672 24.519 47.3032 24.4975 46.9363 24.5014C46.5597 24.5053 46.183 24.5347 45.8866 24.619L45.8837 24.62L45.8846 24.6219Z" fill="black"/>
<path fill-rule="evenodd" clip-rule="evenodd" d="M46.2084 22.6081C46.0705 22.6189 45.6694 22.6365 45.3769 22.5855C45.2937 22.5708 45.2252 22.5571 45.19 22.5454C45.2712 22.2808 45.5197 21.9182 45.82 21.5624C46.2338 21.0725 46.7377 20.6079 47.0498 20.4217C47.264 20.2934 47.4626 20.212 47.6661 20.1532C47.8754 20.0925 48.0975 20.0533 48.3519 20.0111C48.5084 19.9857 48.6865 19.9602 48.8635 19.9347C49.1531 19.8935 49.4417 19.8524 49.744 19.7906C49.8037 19.7789 49.9719 19.7456 50.1285 19.7309C50.2283 19.722 50.285 19.6525 50.2997 19.6799C50.3134 19.7054 50.1079 19.9494 50.0042 20.0729L49.9533 20.1346C49.787 20.3463 49.5982 20.5619 49.4163 20.7706L49.2157 21.0019C48.8332 21.4468 48.5358 21.7751 48.1924 22.0152C47.8539 22.2514 47.4577 22.4091 46.8678 22.5189C46.7582 22.5395 46.6496 22.5561 46.5401 22.5708C46.4129 22.5875 46.3072 22.6002 46.2104 22.61L46.2084 22.6081Z" fill="#51C7CC"/>
<path d="M46.2084 22.6081C46.0705 22.6189 45.6694 22.6365 45.3769 22.5855C45.2937 22.5708 45.2252 22.5571 45.19 22.5454C45.2712 22.2808 45.5197 21.9182 45.8201 21.5624C46.2339 21.0725 46.7377 20.6079 47.0498 20.4218C47.264 20.2934 47.4626 20.212 47.6661 20.1532C47.8755 20.0925 48.0975 20.0533 48.3519 20.0111C48.5084 19.9857 48.6865 19.9602 48.8635 19.9347C49.1531 19.8935 49.4417 19.8524 49.744 19.7906C49.8037 19.7789 49.972 19.7456 50.1285 19.7309C50.2283 19.722 50.285 19.6525 50.2997 19.6799C50.3134 19.7054 50.1079 19.9494 50.0042 20.0729L49.9534 20.1346C49.7871 20.3463 49.5983 20.5619 49.4163 20.7706L49.2157 21.0019C48.8332 21.4468 48.5358 21.7751 48.1924 22.0152C47.8539 22.2514 47.4577 22.4091 46.8678 22.5189C46.7582 22.5395 46.6497 22.5561 46.5401 22.5708C46.4129 22.5875 46.3072 22.6002 46.2104 22.61L46.2084 22.6081ZM46.8717 19.4281C46.724 19.4967 46.589 19.5721 46.4599 19.6564C46.3346 19.7387 46.2124 19.8318 46.0881 19.9367L46.0852 19.9386C45.7858 20.1993 45.4718 20.5805 45.1802 20.9803C44.8916 21.3763 44.6265 21.7878 44.4201 22.1171L44.4172 22.121C44.2851 22.3356 44.0435 22.7257 44.0268 23.0089L44.0249 23.0383L44.0307 23.0648C44.1149 23.4371 44.5805 23.4607 44.8613 23.4754L44.9298 23.4793C45.1861 23.494 45.4346 23.491 45.6811 23.4871C45.7653 23.4861 45.8474 23.4852 45.9795 23.4842H45.9824C46.2534 23.4793 46.7201 23.4342 47.1564 23.3666C47.5154 23.3107 47.8598 23.2382 48.0692 23.1578C48.4429 23.0138 48.7227 22.8452 48.9692 22.6326C49.2118 22.4238 49.4173 22.1769 49.6491 21.8721C49.789 21.6879 49.924 21.4968 50.059 21.3057L50.1725 21.145C50.4132 20.8039 51.0491 19.9073 51.1537 19.5251C51.2017 19.3516 51.1802 19.2281 51.0921 19.1262C51.0178 19.041 50.9111 18.9969 50.7654 18.9645C50.4709 18.8989 49.791 18.9665 49.296 19.0165C49.1414 19.0321 49.0054 19.0459 48.9213 19.0517C48.6268 19.0733 48.259 19.1047 47.896 19.1605C47.5233 19.2174 47.1554 19.3007 46.8737 19.4261L46.8707 19.4271L46.8717 19.4281Z" fill="black"/>
</svg>
