<svg width="70" height="64" viewBox="0 0 70 64" fill="none" xmlns="http://www.w3.org/2000/svg">
<path d="M55.2563 3.18358C53.5317 1.65101 51.3246 0.9151 49.1002 0.9151C46.5962 0.9151 44.0674 1.84726 42.182 3.6298L41.3729 4.39374L40.5638 3.62746C38.6784 1.84726 36.1496 0.9151 33.6456 0.9151C31.4212 0.9151 29.2141 1.65101 27.4895 3.18358C23.6964 6.55476 23.6296 12.1944 27.2866 15.6474L41.3729 28.9475L55.4592 15.6474C59.1162 12.1944 59.0494 6.55476 55.2563 3.18358Z" fill="#51C7CC"/>
<path d="M69.0828 35.7202C66.9177 34.3348 64.3667 34.7273 62.1077 35.9585C59.8486 37.1897 46.8783 47.6607 46.8783 47.6607L34.1108 47.663C33.517 47.663 32.8736 47.0322 32.8736 46.4738C32.8736 45.8174 33.4799 45.3057 34.1108 45.3057H41.9222C44.6563 45.3057 47.7171 43.6236 47.7171 40.6333C47.7171 37.456 44.6563 35.9608 41.9222 35.9608C37.179 35.9608 36.256 35.9795 36.256 35.9795C34.3558 35.9795 32.4283 35.872 30.9437 35.1221C28.9642 34.1643 26.6829 33.6223 24.2482 33.6223C20.1606 33.6223 16.5011 35.1618 13.9922 37.5892L0.667969 49.9759L15.5139 63.9932L20.4625 59.3208H45.5199C48.014 59.3208 50.4215 58.4564 52.2846 56.8934L69.251 38.9232C70.2878 38.0541 70.2284 36.4561 69.0828 35.7202Z" fill="#51C7CC"/>
</svg>
