<svg width="30" height="30" viewBox="0 0 30 30" fill="none" xmlns="http://www.w3.org/2000/svg">
<g clip-path="url(#clip0)">
<path d="M15.0022 0C9.37426 0 4.8111 4.5325 4.8111 10.1238C4.8111 12.9842 7.61697 18.1087 7.61697 18.1087L14.6265 30L21.9402 18.2475C21.9402 18.2475 25.189 13.3581 25.189 10.1238C25.1899 4.5325 20.6276 0 15.0022 0ZM14.9545 15.6998C11.7312 15.6998 9.12042 13.089 9.12042 9.86229C9.12042 6.63988 11.7304 4.03078 14.9545 4.03078C18.176 4.03078 20.7894 6.63988 20.7894 9.86229C20.7894 13.089 18.176 15.6998 14.9545 15.6998Z" fill="#51C7CC"/>
</g>
<defs>
<clipPath id="clip0">
<rect width="30" height="30" fill="white"/>
</clipPath>
</defs>
</svg>
